<?xml version="1.0" standalone="no"?>
<!DOCTYPE svg PUBLIC "-//W3C//DTD SVG 1.1//EN" "http://www.w3.org/Graphics/SVG/1.1/DTD/svg11.dtd" >
<svg xmlns="http://www.w3.org/2000/svg">
<metadata>Generated by IcoMoon</metadata>
<defs>
<font id="dreamhome" horiz-adv-x="1024">
<font-face units-per-em="1024" ascent="960" descent="-64" />
<missing-glyph horiz-adv-x="1024" />
<glyph unicode="&#x20;" horiz-adv-x="512" d="" />
<glyph unicode="&#xe900;" glyph-name="phone-call" d="M994.772 208.6l-196.172 116.696c-8.748 5.392-19.35 8.587-30.698 8.587-17.704 0-33.592-7.776-44.434-20.1l-0.057-0.066-82.8-92.78c-5.718-6.623-14.126-10.79-23.506-10.79-4.55 0-8.871 0.98-12.763 2.741l0.195-0.079c-148.506 63.34-264.388 179.221-326.211 323.738l-1.517 3.988c-1.678 3.694-2.655 8.011-2.655 12.556 0 9.38 4.165 17.788 10.746 23.475l0.040 0.033 92.78 82.8c12.388 10.899 20.163 26.787 20.163 44.491 0 11.347-3.194 21.947-8.732 30.952l0.147-0.257-116.698 196.186c-10.408 17.617-29.301 29.248-50.91 29.248-1.108 0-2.209-0.031-3.302-0.091l0.152 0.007c-38.636-1.943-74.859-9.814-108.588-22.727l2.412 0.811c-1.375-0.515-2.565-1.179-3.634-1.995l0.034 0.025c-57.764-43.712-93.944-120.726-107.508-228.906-0.801-5.727-1.259-12.344-1.259-19.068 0-9.78 0.968-19.334 2.813-28.571l-0.154 0.925c31.578-168.536 122.030-334.412 254.694-467.076s298.546-223.118 467.082-254.694c8.247-1.668 17.738-2.635 27.45-2.66h0.020c6.8 0.016 13.478 0.471 20.026 1.339l-0.782-0.085c108.178 13.564 185.2 49.736 228.904 107.508 0.791 1.035 1.456 2.225 1.938 3.504l0.032 0.096c12.102 31.318 19.974 67.542 21.882 105.339l0.034 0.839c0.053 0.94 0.084 2.039 0.084 3.145 0 21.611-11.631 40.505-28.974 50.765l-0.274 0.15zM995.972 155.8c-1.76-34.836-8.758-67.507-20.228-97.989l0.736 2.229c-39.234-50.576-109.474-82.534-208.8-95-4.682-0.665-10.089-1.045-15.585-1.045-7.957 0-15.729 0.796-23.239 2.313l0.748-0.126c-335.8 62.92-636.488 363.6-699.4 699.4-1.391 6.759-2.187 14.528-2.187 22.482 0 5.499 0.38 10.908 1.116 16.204l-0.070-0.612c12.43 99.344 44.388 169.582 94.964 208.816 28.253 10.733 60.924 17.731 94.985 19.461l0.775 0.031c0.56 0.036 1.215 0.057 1.874 0.057 11.436 0 21.424-6.198 26.788-15.417l0.079-0.148 116.704-196.176c2.867-4.652 4.565-10.289 4.565-16.323 0-9.414-4.134-17.863-10.686-23.629l-0.035-0.030-92.782-82.8c-12.371-10.878-20.136-26.738-20.136-44.412 0-8.471 1.784-16.525 4.996-23.808l-0.149 0.378c66.223-155.27 187.381-276.43 338.479-341.070l4.169-1.586c6.906-3.064 14.961-4.849 23.434-4.849 17.672 0 33.532 7.763 44.354 20.065l0.057 0.066 82.8 92.784c5.797 6.587 14.245 10.722 23.66 10.722 6.033 0 11.67-1.698 16.458-4.642l-0.137 0.078 196.176-116.704c9.366-5.44 15.563-15.424 15.563-26.855 0-0.66-0.021-1.316-0.061-1.966l0.004 0.089zM544.704 480.704c2.534-2.534 6.034-4.101 9.9-4.101 1.288 0 2.536 0.174 3.721 0.5l-0.098-0.023 132.2 35.424c28.505-13.442 61.917-21.288 97.162-21.288 128.337 0 232.374 104.037 232.374 232.374s-104.037 232.374-232.374 232.374c-128.337 0-232.374-104.037-232.374-232.374 0-35.245 7.846-68.657 21.888-98.584l-0.6 1.423-35.424-132.2c-0.303-1.086-0.477-2.334-0.477-3.622 0-3.867 1.568-7.368 4.103-9.902v0zM604.882 624.154c0.303 1.086 0.476 2.333 0.476 3.621 0 2.237-0.524 4.351-1.457 6.226l0.037-0.081c-13.071 26.18-20.722 57.032-20.722 89.67 0 112.873 91.501 204.374 204.374 204.374s204.374-91.501 204.374-204.374c0-112.873-91.501-204.374-204.374-204.374-32.638 0-63.49 7.651-90.858 21.257l1.188-0.535c-1.794 0.896-3.909 1.42-6.146 1.42-1.288 0-2.534-0.174-3.719-0.499l0.098 0.023-113.754-30.482zM726.302 716.3c0 24.301-19.699 44-44 44s-44-19.699-44-44c0-24.301 19.699-44 44-44v0c24.289 0.028 43.972 19.711 44 43.997v0.003zM682.302 700.3c-8.837 0-16 7.163-16 16s7.163 16 16 16c8.837 0 16-7.163 16-16v0c-0.010-8.832-7.168-15.989-15.999-15.998h-0.001zM794.302 672.3c24.301 0 44 19.699 44 44s-19.699 44-44 44c-24.301 0-44-19.699-44-44v0c0.028-24.289 19.711-43.971 43.997-43.998h0.003zM794.302 732.3c8.837 0 16-7.163 16-16s-7.163-16-16-16c-8.837 0-16 7.163-16 16v0c0.009 8.833 7.167 15.992 15.999 16.002h0.001zM906.302 672.3c24.301 0 44 19.699 44 44s-19.699 44-44 44c-24.301 0-44-19.699-44-44v0c0.028-24.289 19.711-43.971 43.997-43.998h0.003zM906.302 732.3c8.837 0 16-7.163 16-16s-7.163-16-16-16c-8.837 0-16 7.163-16 16v0c0.010 8.833 7.167 15.991 15.999 16.002h0.001z" />
<glyph unicode="&#xe901;" glyph-name="phone" d="M985.548 197.136c-9.432 15.397-24.285 26.689-41.845 31.292l-0.485 0.108-186.918 50.156c-5.639 1.611-12.117 2.538-18.81 2.538-19.751 0-37.618-8.067-50.485-21.087l-38.765-38.765c-9.944-10.156-23.795-16.452-39.116-16.452-9.246 0-17.957 2.293-25.595 6.341l0.297-0.144c-122.476 62.17-246.534 186.228-308.704 308.706-3.904 7.34-6.196 16.050-6.196 25.295 0 15.322 6.296 29.173 16.443 39.108l0.010 0.009 38.756 38.758c13.026 12.875 21.092 30.742 21.092 50.494 0 6.692-0.926 13.168-2.657 19.306l0.12-0.5-50.146 186.918c-4.715 18.047-16.011 32.901-31.108 42.159l-0.304 0.173-44.098 27.414c-10.717 6.907-23.806 11.011-37.853 11.011-13.567 0-26.24-3.828-36.997-10.464l0.304 0.175c-47.001-28.21-86.38-64.098-117.631-106.36l-0.769-1.088c-10.1-13.343-16.977-29.655-19.181-47.416l-0.049-0.486c-27.246-208.684 61.856-438.64 238.342-615.136 155.516-155.518 352.542-243.182 539.952-243.182 0.121 0 0.264 0 0.407 0 26.361 0 52.311 1.756 77.741 5.158l-2.974-0.325c18.248 2.257 34.56 9.136 48.155 19.418l-0.251-0.182c43.353 32.019 79.241 71.398 106.445 116.597l1.007 1.803c6.462 10.453 10.291 23.126 10.291 36.693 0 14.047-4.104 27.135-11.179 38.13l0.168-0.28zM972.436 103.036c-24.844-41.388-56.447-76.065-93.664-103.585l-0.958-0.677c-7.134-5.477-15.899-9.179-25.454-10.297l-0.244-0.023c-20.662-2.835-44.539-4.454-68.795-4.454-0.136 0-0.271 0-0.407 0h0.021c-174.682 0-359.298 82.64-505.8 229.136-166.016 166.036-250.012 380.978-224.682 574.986 1.139 9.798 4.841 18.562 10.411 25.818l-0.091-0.124c28.197 38.175 62.875 69.779 102.676 93.736l1.588 0.886c3.441 2.201 7.639 3.509 12.142 3.509 4.659 0 8.99-1.4 12.598-3.801l-0.083 0.052 44.106-27.414c5.157-3.048 8.921-7.991 10.357-13.848l0.031-0.152 50.148-186.922c0.602-1.94 0.949-4.17 0.949-6.481 0-6.471-2.718-12.307-7.074-16.429l-0.011-0.010-38.758-38.758c-18.932-18.538-30.669-44.359-30.669-72.922 0-17.236 4.274-33.474 11.82-47.712l-0.268 0.554c66.414-130.838 198.942-263.364 329.78-329.778 13.685-7.28 29.924-11.554 47.162-11.554 28.562 0 54.382 11.736 72.903 30.649l0.017 0.018 38.76 38.76c4.132 4.368 9.968 7.086 16.44 7.086 2.311 0 4.541-0.347 6.641-0.991l-0.16 0.042 186.918-50.15c6.009-1.466 10.952-5.23 13.944-10.285l0.056-0.103 27.414-44.104c2.348-3.524 3.747-7.855 3.747-12.512 0-4.504-1.308-8.703-3.565-12.237l0.055 0.092z" />
<glyph unicode="&#xe902;" glyph-name="mail" d="M750.633 594.762v0l0.102-0.106c3.494-3.523 8.069-5.276 12.655-5.276 4.573 0 9.155 1.747 12.673 5.239 7.031 6.975 7.033 18.401 0.041 25.448-6.984 7.037-18.348 7.084-25.387 0.102l-0.084-25.407zM750.633 594.762l-0.016 0.018M750.633 594.762l-0.016 0.018M750.617 594.78c-6.984 7.039-6.939 18.405 0.098 25.389l-0.098-25.389zM951.542 388.966h4.944l-150.96 150.958c-7.010 7.012-7.010 18.379 0 25.389 7.012 7.008 18.381 7.008 25.389 0l185.758-185.756c3.365-3.367 5.257-7.936 5.259-12.696 0-4.762-1.892-9.327-5.257-12.694l-318.843-318.845c-3.367-3.365-7.934-5.257-12.694-5.257-4.762 0-9.329 1.892-12.694 5.257l-481.138 481.137c0 0 0 0 0 0-7.011 7.012-7.010 18.379 0 25.389l318.839 318.846c7.010 7.008 18.379 7.008 25.389 0 0 0 0 0 0 0l180.66-180.657c7.010-7.012 7.010-18.381 0-25.391-7.012-7.008-18.381-7.006-25.391 0l-145.861 145.861v-356.592c0-30.302 24.646-54.95 54.95-54.95h351.65zM509.041 803.866v4.944l-261.704-261.703h261.704v256.759zM663.689 94.855l3.496-3.496v261.704h-67.289c-50.096 0-90.855 40.757-90.855 90.853v67.287h-261.704l416.352-416.348zM703.087 96.301v-4.944l261.704 261.706h-261.704v-256.762zM20 449.954h117.262c9.915 0 17.952-8.038 17.952-17.951 0-9.916-8.037-17.953-17.952-17.953h-117.262c-9.915 0-17.952 8.038-17.952 17.953 0 9.912 8.037 17.951 17.952 17.951zM196.64 449.954h0.3c9.914 0 17.953-8.038 17.953-17.951s-8.038-17.953-17.953-17.953h-0.3c-9.915 0-17.952 8.038-17.952 17.953 0 9.912 8.037 17.951 17.952 17.951zM20 659.948h64.006c9.915 0 17.952-8.038 17.952-17.951s-8.037-17.953-17.952-17.953h-64.006c-9.915 0-17.952 8.038-17.952 17.953 0 9.912 8.037 17.951 17.952 17.951zM149.44 659.948h75.656c9.914 0 17.953-8.038 17.953-17.951s-8.038-17.953-17.953-17.953h-75.656c-9.915 0-17.952 8.038-17.952 17.953 0 9.912 8.037 17.951 17.952 17.951zM156.64 339.956h111.998c9.912 0 17.953-8.038 17.953-17.953 0-9.912-8.038-17.951-17.953-17.951h-111.998c-9.915 0-17.952 8.038-17.952 17.951s8.037 17.953 17.952 17.953zM74.080 211.952h281.998c9.914 0 17.953-8.038 17.953-17.951s-8.038-17.953-17.953-17.953h-281.998c-9.915 0-17.952 8.038-17.952 17.953 0 9.912 8.037 17.951 17.952 17.951z" />
<glyph unicode="&#xe903;" glyph-name="right-arrow" d="M1012.268 476.314c-0.012 0.012-0.022 0.026-0.036 0.038l-209.008 208c-15.658 15.582-40.984 15.524-56.57-0.136-15.584-15.658-15.524-40.984 0.134-56.568l140.328-139.648h-847.116c-22.092 0-40-17.908-40-40s17.908-40 40-40h847.114l-140.324-139.648c-15.658-15.584-15.718-40.91-0.134-56.568 15.586-15.662 40.914-15.716 56.57-0.136l209.008 208c0.012 0.012 0.022 0.026 0.036 0.038 15.666 15.636 15.616 41.044-0.002 56.628z" />
<glyph unicode="&#xe904;" glyph-name="map" d="M871.92 179.923l2.576 1.030v292.667c0 11.868 9.634 21.504 21.504 21.504 11.868 0 21.504-9.636 21.504-21.504v-307.2c0-8.806-5.37-16.687-13.468-20.011-0.006-0.002-0.010-0.004-0.014-0.006l-255.508-102.183 1.47-3.674c0-0.045 0-0.086 0-0.129l-1.663 3.744-0.393-0.174c-5.073-2.028-10.734-2.028-15.804 0l-1.188 0.526h-0.131l-246.804 98.722-247.998-99.168c-2.589-1.036-5.299-1.55-8.002-1.55-4.26 0-8.423 1.245-12.035 3.697-5.902 4.006-9.469 10.678-9.469 17.807v460.8c0 8.81 5.371 16.683 13.508 19.956 0 0 0.001 0 0.001 0l256.055 102.402c5.11 2.060 10.822 2.060 15.931 0l-0.002-0.002 0.096-0.035 1.104-0.414h0.004l152.508-61.045c0 0 0 0 0.002 0 11.069-4.438 16.429-16.957 12.005-27.949l-0.002-0.004c-4.432-11.057-17.095-16.384-27.945-12.009l-124.258 49.713v-414.429l212.992-85.197v275.413c0 11.868 9.634 21.504 21.504 21.504 11.868 0 21.504-9.636 21.504-21.504v-275.464l210.416 84.167zM374.323 650.056l-0.256 0.639v0.129l0.256-0.768zM359.922 179.974l2.574 1.030v414.48l-212.992-85.197v-414.48l210.418 84.167zM669.696 678.42c0 40.079 32.625 72.704 72.704 72.704s72.704-32.625 72.704-72.704c0-40.081-32.625-72.704-72.704-72.704s-72.704 32.623-72.704 72.704zM712.704 678.42c0-16.394 13.302-29.696 29.696-29.696s29.696 13.302 29.696 29.696c0 16.392-13.302 29.696-29.696 29.696s-29.696-13.304-29.696-29.696zM739.269 458.846l3.131-3.715 3.131 3.715c28.043 33.255 60.166 75.446 85.303 115.495 12.569 20.023 23.439 39.586 31.181 57.281 7.7 17.603 12.481 33.743 12.481 46.799 0 72.815-59.281 132.096-132.096 132.096-72.817 0-132.096-59.281-132.096-132.096 0-13.068 4.78-29.215 12.481-46.819 7.741-17.699 18.612-37.259 31.181-57.278 25.137-40.045 57.26-82.221 85.303-115.476zM567.296 678.42c0 96.553 78.551 175.104 175.104 175.104s175.104-78.55 175.104-175.104c0-22.061-8.665-48.81-22.313-77.117-13.605-28.215-31.957-57.569-50.885-84.72-37.841-54.28-77.74-99.416-85.903-108.521-4.1-4.528-9.912-7.145-16.003-7.145s-11.903 2.617-16.003 7.145c-8.165 9.11-48.065 54.243-85.903 108.521-18.928 27.15-37.28 56.504-50.885 84.72-13.648 28.307-22.313 55.056-22.313 77.117z" />
<glyph unicode="&#xe905;" glyph-name="price-house" horiz-adv-x="1067" d="M565.333 288v32h-80c-26.462 0-48 21.538-48 48v64c0 26.462 21.538 48 48 48h16v32h64v-32h32c8.486 0 16.627-3.371 22.626-9.374 6.003-5.999 9.374-14.14 9.374-22.626s-3.371-16.627-9.374-22.626c-5.999-6.003-14.14-9.374-22.626-9.374h-96v-32h80c26.462 0 48-21.538 48-48v-64c0-26.466-21.538-48-48-48h-16v-32h-64v32h-32c-8.486 0-16.627 3.371-22.626 9.374-6.003 5.999-9.374 14.14-9.374 22.626s3.371 16.627 9.374 22.626c5.999 6.003 14.14 9.374 22.626 9.374h96zM958.724 505.826l-347.904 327.486c-20.975 19.707-48.674 30.678-77.453 30.678-28.783 0-56.482-10.97-77.457-30.678l-82.528-77.728v76.416c0 8.487-3.372 16.626-9.373 22.627s-14.141 9.373-22.627 9.373h-128c-8.487 0-16.626-3.372-22.627-9.373s-9.373-14.141-9.373-22.627v-257.152l-72.416-68.19c-21.984-19.072-29.408-49.442-18.976-77.376 10.272-27.52 35.424-45.282 64.064-45.282h27.328v-320c0-8.486 3.372-16.627 9.373-22.626 6.001-6.003 14.141-9.374 22.627-9.374h639.998c8.491 0 16.627 3.371 22.63 9.374 5.999 5.999 9.37 14.14 9.37 22.626v320h27.264c28.672 0 53.858 17.792 64.128 45.312 10.402 27.938 2.944 58.304-18.048 76.514zM245.382 800h64v-104.64l-64-60.256v164.896zM916.804 451.682c-1.374-3.682-3.486-3.682-4.16-3.682h-59.264c-8.486 0-16.623-3.371-22.626-9.374-5.999-5.999-9.374-14.14-9.374-22.626v-320h-575.998v320c0 8.486-3.372 16.627-9.373 22.626-6.001 6.003-14.141 9.374-22.627 9.374h-59.328c-0.672 0-2.752 0-4.128 3.682-0.534 1.293-0.632 2.726-0.28 4.083s1.135 2.564 2.232 3.435l347.902 327.488c9.097 8.543 21.107 13.298 33.587 13.298 12.476 0 24.486-4.756 33.583-13.298l348.83-328.35c2.402-2.048 1.506-5.346 1.024-6.656z" />
<glyph unicode="&#xe906;" glyph-name="angle-right" d="M352 96c-8.184 0-16.376 3.128-22.624 9.376-12.504 12.504-12.504 32.752 0 45.248l297.376 297.376-297.376 297.376c-12.504 12.504-12.504 32.752 0 45.248s32.752 12.504 45.248 0l320-320c12.504-12.504 12.504-32.752 0-45.248l-320-320c-6.248-6.248-14.44-9.376-22.624-9.376z" />
<glyph unicode="&#xe907;" glyph-name="angle-left" d="M672 96c-8.184 0-16.376 3.128-22.624 9.376l-320 320c-12.504 12.504-12.504 32.752 0 45.248l320 320c12.504 12.504 32.752 12.504 45.248 0s12.504-32.752 0-45.248l-297.376-297.376 297.376-297.376c12.504-12.504 12.504-32.752 0-45.248-6.248-6.248-14.44-9.376-22.624-9.376z" />
<glyph unicode="&#xe908;" glyph-name="list" d="M972.922 76.171h-684.745c-28.222 0-51.095 22.874-51.095 51.095s22.874 51.095 51.095 51.095h684.728c28.222 0 51.095-22.874 51.095-51.095s-22.857-51.095-51.078-51.095zM972.922 396.896h-684.745c-28.222 0-51.095 22.874-51.095 51.095s22.874 51.095 51.095 51.095h684.728c28.222 0 51.095-22.874 51.095-51.095 0.017-28.222-22.857-51.095-51.078-51.095zM972.922 717.621h-684.745c-28.222 0-51.095 22.874-51.095 51.095s22.874 51.095 51.095 51.095h684.728c28.222 0 51.095-22.874 51.095-51.095s-22.857-51.095-51.078-51.095zM137.242 764.765c0-37.898-30.723-68.621-68.621-68.621s-68.621 30.723-68.621 68.621c0 37.898 30.723 68.621 68.621 68.621s68.621-30.723 68.621-68.621zM137.242 447.991c0-37.898-30.723-68.621-68.621-68.621s-68.621 30.723-68.621 68.621c0 37.898 30.723 68.621 68.621 68.621s68.621-30.723 68.621-68.621zM137.242 131.218c0-37.898-30.723-68.621-68.621-68.621s-68.621 30.723-68.621 68.621c0 37.898 30.723 68.621 68.621 68.621s68.621-30.723 68.621-68.621z" />
<glyph unicode="&#xe909;" glyph-name="menu" d="M512 576c-70.692 0-128-57.308-128-128s57.308-128 128-128c70.692 0 128 57.308 128 128v0c-0.082 70.659-57.34 127.918-127.992 128h-0.008zM512 384c-35.346 0-64 28.654-64 64s28.654 64 64 64c35.346 0 64-28.654 64-64v0c0-35.346-28.654-64-64-64v0zM176 576c-70.692 0-128-57.308-128-128s57.308-128 128-128c70.692 0 128 57.308 128 128v0c-0.082 70.659-57.34 127.918-127.992 128h-0.008zM176 384c-35.346 0-64 28.654-64 64s28.654 64 64 64c35.346 0 64-28.654 64-64v0c0-35.346-28.654-64-64-64v0zM848 576c-70.692 0-128-57.308-128-128s57.308-128 128-128c70.692 0 128 57.308 128 128v0c-0.082 70.659-57.34 127.918-127.992 128h-0.008zM848 384c-35.346 0-64 28.654-64 64s28.654 64 64 64c35.346 0 64-28.654 64-64v0c0-35.346-28.654-64-64-64v0zM512 240c-70.692 0-128-57.308-128-128s57.308-128 128-128c70.692 0 128 57.308 128 128v0c-0.082 70.659-57.34 127.918-127.992 128h-0.008zM512 48c-35.346 0-64 28.654-64 64s28.654 64 64 64c35.346 0 64-28.654 64-64v0c0-35.346-28.654-64-64-64v0zM176 240c-70.692 0-128-57.308-128-128s57.308-128 128-128c70.692 0 128 57.308 128 128v0c-0.082 70.659-57.34 127.918-127.992 128h-0.008zM176 48c-35.346 0-64 28.654-64 64s28.654 64 64 64c35.346 0 64-28.654 64-64v0c0-35.346-28.654-64-64-64v0zM848 240c-70.692 0-128-57.308-128-128s57.308-128 128-128c70.692 0 128 57.308 128 128v0c-0.082 70.659-57.34 127.918-127.992 128h-0.008zM848 48c-35.346 0-64 28.654-64 64s28.654 64 64 64c35.346 0 64-28.654 64-64v0c0-35.346-28.654-64-64-64v0zM512 912c-70.692 0-128-57.308-128-128s57.308-128 128-128c70.692 0 128 57.308 128 128v0c-0.082 70.659-57.34 127.918-127.992 128h-0.008zM512 720c-35.346 0-64 28.654-64 64s28.654 64 64 64c35.346 0 64-28.654 64-64v0c0-35.346-28.654-64-64-64v0zM176 912c-70.692 0-128-57.308-128-128s57.308-128 128-128c70.692 0 128 57.308 128 128v0c-0.082 70.659-57.34 127.918-127.992 128h-0.008zM176 720c-35.346 0-64 28.654-64 64s28.654 64 64 64c35.346 0 64-28.654 64-64v0c0-35.346-28.654-64-64-64v0zM848 656c70.692 0 128 57.308 128 128s-57.308 128-128 128c-70.692 0-128-57.308-128-128v0c0.082-70.659 57.34-127.918 127.992-128h0.008zM848 848c35.346 0 64-28.654 64-64s-28.654-64-64-64c-35.346 0-64 28.654-64 64v0c0 35.346 28.654 64 64 64v0z" />
<glyph unicode="&#xe90a;" glyph-name="arrow-right2" d="M170.667 405.333c-11.478 0-21.458 4.241-29.941 12.723-8.483 8.486-12.725 18.466-12.725 29.943 0 11.977 4.242 21.956 12.725 29.943 8.483 8.482 18.464 12.723 29.941 12.723h682.667c11.977 0 21.956-4.241 29.943-12.723 8.482-7.987 12.723-17.967 12.723-29.943 0-11.477-4.241-21.457-12.723-29.943-7.987-8.482-17.967-12.723-29.943-12.723zM584.61 119.39c-7.488-8.482-17.468-12.723-29.943-12.723-11.477 0-21.457 4.241-29.943 12.723-8.482 8.486-12.723 18.466-12.723 29.943 0 12.476 4.241 22.455 12.723 29.943l294.178 294.174c2.496 2.496 4.241-1.246 5.239-11.23 0.998-9.481 0.998-19.213 0-29.193-0.998-9.481-2.743-12.975-5.239-10.479l-294.178 294.176c-8.482 7.984-12.723 17.965-12.723 29.941s4.241 21.957 12.723 29.942c8.486 8.483 18.466 12.725 29.943 12.725 12.476 0 22.455-4.242 29.943-12.725l294.174-294.176c9.481-8.981 14.221-20.459 14.221-34.432 0-13.474-4.74-24.951-14.221-34.432z" />
<glyph unicode="&#xe90b;" glyph-name="like" d="M979.834 263.843c20.985 26.767 31.050 55.461 29.765 85.012-1.285 32.549-15.846 58.031-27.838 73.663 13.919 34.69 19.272 89.295-27.195 131.694-34.048 31.050-91.864 44.969-171.951 41.114-56.318-2.57-103.428-13.062-105.355-13.491h-0.214c-10.707-1.927-22.056-4.283-33.619-6.852-0.857 13.705 1.499 47.752 26.767 124.413 29.979 91.222 28.266 161.031-5.568 207.712-35.547 49.037-92.293 52.892-108.995 52.892-16.060 0-30.836-6.638-41.328-18.844-23.769-27.624-20.985-78.588-17.987-102.143-28.266-75.804-107.496-261.675-174.521-313.281-1.285-0.857-2.355-1.927-3.426-2.998-19.701-20.771-32.977-43.256-41.971-62.956-12.634 6.852-26.981 10.707-42.399 10.707h-130.623c-49.251 0-89.081-40.043-89.081-89.081v-347.972c0-49.251 40.043-89.081 89.081-89.081h130.623c19.058 0 36.831 5.996 51.393 16.274l50.322-5.996c7.709-1.071 144.756-18.416 285.444-15.632 25.482-1.927 49.465-2.998 71.736-2.998 38.33 0 71.736 2.998 99.573 8.994 65.526 13.919 110.28 41.757 132.979 82.657 17.345 31.264 17.345 62.314 14.561 82.014 42.613 38.545 50.108 81.158 48.609 111.137-0.857 17.345-4.711 32.12-8.78 43.041zM103.374 2.168c-17.345 0-31.264 14.133-31.264 31.264v348.186c0 17.345 14.133 31.264 31.264 31.264h130.623c17.345 0 31.264-14.133 31.264-31.264v-347.972c0-17.345-14.133-31.264-31.264-31.264h-130.623v-0.214zM925.015 288.897c-8.994-9.422-10.707-23.769-3.854-34.904 0-0.214 8.78-15.204 9.85-35.761 1.499-28.052-11.992-52.892-40.258-74.091-10.064-7.709-14.133-20.985-9.85-32.977 0-0.214 9.208-28.48-5.782-55.247-14.347-25.696-46.253-44.112-94.648-54.391-38.759-8.351-91.436-9.85-156.105-4.711-0.857 0-1.927 0-2.998 0-137.69-2.998-276.878 14.99-278.377 15.204h-0.214l-21.628 2.57c1.285 5.996 1.927 12.42 1.927 18.844v348.186c0 9.208-1.499 18.202-4.069 26.553 3.854 14.347 14.561 46.253 39.829 73.449 96.147 76.233 190.153 333.41 194.222 344.545 1.713 4.497 2.141 9.422 1.285 14.347-3.64 23.983-2.355 53.32 2.784 62.1 11.349-0.214 41.971-3.426 60.386-28.908 21.842-30.193 20.985-84.156-2.57-155.677-35.975-108.995-38.973-166.384-10.493-191.652 14.133-12.634 32.977-13.276 46.682-8.351 13.062 2.998 25.482 5.568 37.26 7.495 0.857 0.214 1.927 0.428 2.784 0.642 65.74 14.347 183.515 23.127 224.415-14.133 34.69-31.692 10.064-73.663 7.281-78.16-7.923-11.992-5.568-27.624 5.139-37.26 0.214-0.214 22.698-21.414 23.769-49.894 0.857-19.058-8.137-38.545-26.767-57.817z" />
<glyph unicode="&#xe90c;" glyph-name="map2" d="M987.439 960c-5.681 0.002-11.284-1.318-16.365-3.857l-277.134-138.604-313.375 139.299c-0.512 0.219-1.097 0.257-1.646 0.476-1.41 0.527-2.852 0.966-4.316 1.316-1.455 0.392-2.934 0.699-4.425 0.915-2.97 0.244-5.955 0.244-8.923 0-1.491-0.216-2.97-0.523-4.425-0.915-1.464-0.349-2.906-0.789-4.316-1.316-0.549-0.219-1.134-0.255-1.646-0.476l-329.138-146.284c-13.213-5.867-21.726-18.968-21.724-33.424v-804.56c0.006-12.373 6.266-23.903 16.639-30.647 10.376-6.754 23.462-7.8 34.778-2.779l314.29 139.701 314.29-139.701c0.549-0.219 1.134 0 1.682-0.33 8.854-3.96 19.018-3.733 27.683 0.621 0.585 0.255 1.243 0 1.828 0.403l292.566 146.284c12.398 6.195 20.23 18.87 20.224 32.732v804.558c0.013 20.198-16.354 36.58-36.55 36.589zM329.146 142.624l-255.997-113.771v724.504l255.997 113.773v-724.506zM658.284 28.853l-255.997 113.771v724.506l255.997-113.771v-724.506zM950.85 141.454l-219.425-109.713v722.787l219.425 109.713v-722.787z" />
<glyph unicode="&#xe90d;" glyph-name="search" d="M1012.338 3.963l-249.906 249.901c62.118 74.699 99.542 170.621 99.542 275.137 0 237.654-193.34 431-430.984 431-237.649 0-430.989-193.346-430.989-431 0-237.638 193.34-430.968 430.989-430.968 104.511 0 200.438 37.418 275.137 99.537l249.911-249.906c7.771-7.777 17.963-11.662 28.15-11.662s20.379 3.886 28.155 11.662c15.548 15.548 15.548 40.752-0.005 56.3zM79.625 529c0 193.749 157.621 351.375 351.364 351.375 193.738 0 351.354-157.626 351.354-351.375 0-193.733-157.615-351.343-351.354-351.343-193.744 0-351.364 157.61-351.364 351.343z" />
<glyph unicode="&#xe90e;" glyph-name="date" d="M857.28 824h-112.64v16c0 17.673-14.327 32-32 32s-32-14.327-32-32v0-16h-337.28v16c0 17.673-14.327 32-32 32s-32-14.327-32-32v0-16h-112.64c-74.331-0.182-134.538-60.389-134.72-134.703v-561.297c0.182-74.331 60.389-134.538 134.703-134.72h690.577c74.331 0.182 134.538 60.389 134.72 134.703v561.297c-0.182 74.331-60.389 134.538-134.703 134.72h-0.017zM166.72 760h112.64v-16c0-17.673 14.327-32 32-32s32 14.327 32 32v0 16h337.28v-16c0-17.673 14.327-32 32-32s32 14.327 32 32v0 16h112.64c39.058 0 70.72-31.662 70.72-70.72v0-75.84h-832v75.84c0 39.058 31.662 70.72 70.72 70.72v0zM857.28 56h-690.56c-0.003 0-0.008 0-0.012 0-39.058 0-70.72 31.662-70.72 70.72 0 0.45 0.004 0.899 0.013 1.347l-0.001-0.067v421.44h832v-421.44c0.007-0.381 0.012-0.83 0.012-1.28 0-39.058-31.662-70.72-70.72-70.72-0.004 0-0.008 0-0.012 0h0.001z" />
<glyph unicode="&#xe90f;" glyph-name="message" d="M236.395 865.461h551.211c83.424 0 151.061-67.627 151.061-151.061v-334.752c0-83.435-67.637-151.061-151.061-151.061h-242.251l-200.779-188.171c-7.275-6.816-16-9.877-24.555-9.877-18.667 0-36.491 14.56-36.491 36.331v161.717h-47.136c-83.424 0-151.061 67.627-151.061 151.061v334.752c0 83.435 67.637 151.061 151.061 151.061zM145.76 379.648c0-49.984 40.661-90.635 90.635-90.635h107.563v-166.368l177.504 166.357h266.144c49.973 0 90.635 40.661 90.635 90.635v334.763c0 49.984-40.661 90.635-90.635 90.635h-551.2c-49.973 0-90.635-40.661-90.635-90.635v-334.752zM677.792 599.051c13.347-0.023 25.429-5.422 34.199-14.146l-0.002 0.002c8.72-8.77 14.117-20.851 14.144-34.192v-0.005c0-12.683-5.141-25.195-14.144-34.197-8.783-8.699-20.855-14.090-34.187-14.144h-0.010c-13.323 0.066-25.375 5.455-34.148 14.148l0.004-0.004c-8.726 8.771-14.138 20.847-14.197 34.186v0.011c0.049 13.352 5.464 25.431 14.199 34.199l-0.002-0.002c8.756 8.71 20.816 14.106 34.137 14.144h0.007zM511.989 599.051c12.747 0 25.195-5.131 34.197-14.144s14.144-21.451 14.144-34.197c0-12.683-5.131-25.195-14.144-34.197-8.783-8.699-20.855-14.090-34.187-14.144h-0.010c-13.325 0.054-25.38 5.446-34.147 14.147l0.003-0.003c-9.003 9.003-14.197 21.451-14.197 34.197s5.195 25.195 14.197 34.197c8.749 8.721 20.814 14.121 34.14 14.144h0.004zM346.176 599.051c13.347-0.023 25.429-5.422 34.199-14.146l-0.002 0.002c9.003-9.003 14.144-21.451 14.144-34.197s-5.131-25.195-14.144-34.197c-9.003-8.949-21.451-14.144-34.197-14.144s-25.195 5.195-34.197 14.144c-8.939 9.003-14.144 21.451-14.144 34.197s5.195 25.195 14.144 34.197c8.768 8.722 20.85 14.121 34.193 14.144h0.004z" />
<glyph unicode="&#xe910;" glyph-name="folder" d="M943.76 36.41h-863.52c-44.292 0.056-80.184 35.948-80.24 80.24v461.88c0.056 44.292 35.948 80.184 80.24 80.24h863.52c44.292-0.056 80.184-35.948 80.24-80.24v-461.88c-0.056-44.292-35.948-80.184-80.24-80.24zM80.24 618.77c-22.21-0.034-40.206-18.030-40.24-40.24v-461.88c0.022-22.214 18.026-40.218 40.24-40.24h863.52c22.214 0.022 40.218 18.026 40.24 40.24v461.88c-0.034 22.21-18.030 40.206-40.24 40.24zM20 538.45c-11.046 0-20 8.954-20 20v220.9c0.056 44.292 35.948 80.184 80.24 80.24h261.060c5.304-0.002 10.39-2.11 14.14-5.86l94.56-94.54h493.76c44.3-0.056 80.196-35.96 80.24-80.26v-100.4c0-11.046-8.954-20-20-20s-20 8.954-20 20v100.4c-0.022 22.218-18.022 40.226-40.24 40.26h-502c-5.304 0.002-10.39 2.11-14.14 5.86l-94.6 94.54h-252.78c-22.21-0.034-40.206-18.030-40.24-40.24v-220.9c0-11.046-8.954-20-20-20z" />
<glyph unicode="&#xe911;" glyph-name="user" d="M512 960c-148.878 0-270-121.122-270-270s121.122-270 270-270 270 121.122 270 270-121.122 270-270 270zM512 480c-115.794 0-210 94.206-210 210s94.206 210 210 210c115.794 0 210-94.206 210-210s-94.206-210-210-210zM847.932 243.61c-73.92 75.056-171.914 116.39-275.932 116.39h-120c-104.016 0-202.012-41.334-275.932-116.39-73.558-74.688-114.068-173.276-114.068-277.61 0-16.568 13.432-30 30-30h840c16.568 0 30 13.432 30 30 0 104.334-40.51 202.922-114.068 277.61zM123.32-4c15.030 170.172 156.702 304 328.68 304h120c171.978 0 313.65-133.828 328.68-304h-777.36z" />
<glyph unicode="&#xe912;" glyph-name="image" d="M906.664 64h-789.328c-64.727 0-117.336 52.609-117.336 117.336v533.328c0 64.727 52.609 117.336 117.336 117.336h789.328c64.727 0 117.336-52.609 117.336-117.336v-533.328c0-64.727-52.609-117.336-117.336-117.336zM117.336 768c-29.398 0-53.336-23.938-53.336-53.336v-533.328c0-29.398 23.938-53.336 53.336-53.336h789.328c29.398 0 53.336 23.938 53.336 53.336v533.328c0 29.398-23.938 53.336-53.336 53.336zM213.336 533.336c-47.063 0-85.336 38.266-85.336 85.328s38.273 85.336 85.336 85.336 85.328-38.273 85.328-85.336-38.266-85.328-85.328-85.328zM213.336 640c-11.781 0-21.336-9.555-21.336-21.336 0-11.773 9.555-21.328 21.336-21.328 11.773 0 21.328 9.555 21.328 21.328 0 11.781-9.555 21.336-21.328 21.336zM32 149.336c-8.195 0-16.383 3.109-22.617 9.383-12.5 12.5-12.5 32.766 0 45.273l236.375 236.367c29.188 29.188 76.672 29.188 105.813 0l53.766-53.758 203.094 203.094c29.18 29.188 76.672 29.188 105.813 0l300.375-300.375c12.5-12.5 12.5-32.766 0-45.266-12.508-12.5-32.773-12.5-45.273 0l-300.375 300.375c-4.18 4.18-11.18 4.18-15.313 0l-225.711-225.711c-12.5-12.5-32.766-12.5-45.266 0l-76.375 76.375c-5.422 5.422-9.898 5.422-15.32 0l-236.367-236.375c-6.234-6.273-14.422-9.383-22.617-9.383z" />
<glyph unicode="&#xe913;" glyph-name="printer" d="M917.333 192h-128c-11.776 0-21.333 9.557-21.333 21.333s9.557 21.333 21.333 21.333h128c35.285 0 64 28.715 64 64v298.667c0 35.285-28.715 64-64 64h-810.667c-35.285 0-64-28.715-64-64v-298.667c0-35.285 28.715-64 64-64h128c11.776 0 21.333-9.557 21.333-21.333s-9.557-21.333-21.333-21.333h-128c-58.837 0-106.667 47.872-106.667 106.667v298.667c0 58.795 47.829 106.667 106.667 106.667h810.667c58.837 0 106.667-47.872 106.667-106.667v-298.667c0-58.795-47.829-106.667-106.667-106.667zM618.667 64h-256c-11.776 0-21.333 9.557-21.333 21.333s9.557 21.333 21.333 21.333h256c11.776 0 21.333-9.557 21.333-21.333s-9.557-21.333-21.333-21.333zM618.667 149.333h-256c-11.776 0-21.333 9.557-21.333 21.333s9.557 21.333 21.333 21.333h256c11.776 0 21.333-9.557 21.333-21.333s-9.557-21.333-21.333-21.333zM448 234.667h-85.333c-11.776 0-21.333 9.557-21.333 21.333s9.557 21.333 21.333 21.333h85.333c11.776 0 21.333-9.557 21.333-21.333s-9.557-21.333-21.333-21.333zM789.333 661.333c-11.776 0-21.333 9.557-21.333 21.333v170.667c0 35.285-28.715 64-64 64h-384c-35.285 0-64-28.715-64-64v-170.667c0-11.776-9.557-21.333-21.333-21.333s-21.333 9.557-21.333 21.333v170.667c0 58.795 47.829 106.667 106.667 106.667h384c58.837 0 106.667-47.872 106.667-106.667v-170.667c0-11.776-9.557-21.333-21.333-21.333zM704-64h-384c-58.837 0-106.667 47.872-106.667 106.667v341.333c0 11.776 9.557 21.333 21.333 21.333h554.667c11.776 0 21.333-9.557 21.333-21.333v-341.333c0-58.795-47.829-106.667-106.667-106.667zM256 362.667v-320c0-35.285 28.715-64 64-64h384c35.285 0 64 28.715 64 64v320z" />
<glyph unicode="&#xe914;" glyph-name="360" d="M1022.394 472.154c-1.46 10.948-11.528 18.638-22.468 17.178-10.95-1.46-18.64-11.52-17.18-22.47 0.832-6.236 1.254-12.582 1.254-18.862 0-67.292-47.588-131.432-133.996-180.608-89.96-51.196-209.998-79.392-338.004-79.392-80.886 0-158.58 11.27-227.524 32.476-21.206 68.944-32.476 146.638-32.476 227.524 0 128.004 28.196 248.044 79.392 338.004 49.176 86.41 113.316 133.996 180.608 133.996 56.468 0 101.432-32.564 133.808-68.366h-20.484c-11.044 0-20-8.954-20-20s8.956-20 20-20h62.050c11.044 0 20 8.954 20 20v62.052c0 11.046-8.956 20-20 20s-20-8.954-20-20v-6.738c-46.384 47.456-100.204 73.052-155.374 73.052-82.292 0-158.778-54.766-215.374-154.21-54.572-95.894-84.626-222.958-84.626-357.79 0-74.084 9.092-145.808 26.32-211.318-22.768 9.062-44.296 19.312-64.324 30.712-86.408 49.174-133.996 113.314-133.996 180.606 0 56.802 32.948 101.97 69 134.39v-20.38c0-11.046 8.956-20 20-20s20 8.954 20 20v62.052c0 11.046-8.956 20-20 20h-62.050c-11.044 0-20-8.954-20-20s8.956-20 20-20h6.816c-47.91-46.542-73.766-100.618-73.766-156.062 0-82.29 54.766-158.778 154.21-215.372 30.028-17.088 63.112-31.772 98.534-43.882 12.11-35.422 26.794-68.508 43.882-98.534 56.596-99.446 133.082-154.212 215.374-154.212 47.178 0 94.028 18.758 135.482 54.248 8.39 7.184 9.372 19.808 2.188 28.2-7.182 8.39-19.808 9.37-28.2 2.188-34.596-29.62-71.428-44.636-109.47-44.636-67.292 0-131.432 47.586-180.608 133.996-11.398 20.030-21.65 41.558-30.71 64.324 65.51-17.228 137.234-26.32 211.318-26.32 134.832 0 261.896 30.054 357.79 84.628 99.444 56.594 154.21 133.082 154.21 215.372 0 8.044-0.542 16.17-1.606 24.154zM997.81 543.762c-0.020 0.034-0.052 0.096-0.084 0.152-5.308 9.586-17.364 13.12-27.020 7.892-9.712-5.26-13.322-17.398-8.060-27.11 0.028-0.052 0.134-0.244 0.164-0.296 3.648-6.598 10.476-10.322 17.518-10.322 3.276 0 6.596 0.806 9.664 2.502 9.664 5.346 13.166 17.516 7.818 27.182zM698.796 80.374c-8.972 6.426-21.536 4.246-27.976-4.704-0.034-0.048-0.068-0.094-0.102-0.142-6.364-9.006-4.33-21.598 4.664-27.982 3.478-2.468 7.488-3.65 11.47-3.65 6.314 0 12.556 2.97 16.484 8.476 6.404 8.978 4.426 21.578-4.54 28.002zM653.032 505.614c-0.34 28.126-23.424 51.008-51.458 51.008h-70.542v52.752c0 6.204 5.046 11.25 11.25 11.25h57.99c11.044 0 20 8.954 20 20s-8.956 20-20 20h-57.99c-28.26 0-51.25-22.99-51.25-51.25v-161.458c0-28.26 22.99-51.25 51.25-51.25h59.292c28.034 0 51.118 22.882 51.458 51.008 0.002 0.082 0.002 0.162 0.002 0.242v57.456c0 0.082 0 0.162-0.002 0.242zM613.030 448.068c-0.126-6.294-5.246-11.4-11.458-11.4h-59.292c-6.204 0-11.25 5.046-11.25 11.25v68.706l70.542-0.002c6.212 0 11.334-5.106 11.458-11.4v-57.154zM785.782 660.624h-59.5c-28.26 0-51.25-22.99-51.25-51.25v-161.458c0-28.26 22.99-51.25 51.25-51.25h59.5c28.26 0 51.25 22.99 51.25 51.25v161.458c0 28.26-22.99 51.25-51.25 51.25zM797.032 447.916c0-6.204-5.046-11.25-11.25-11.25h-59.5c-6.204 0-11.25 5.046-11.25 11.25v161.458c0 6.204 5.046 11.25 11.25 11.25h59.5c6.204 0 11.25-5.046 11.25-11.25v-161.458zM417.75 660.624h-51.062c-28.26 0-51.25-22.99-51.25-51.25v-0.706c0-11.046 8.956-20 20-20s20 8.954 20 20v0.706c0 6.204 5.046 11.25 11.25 11.25h51.062c6.204 0 11.25-5.046 11.25-11.25v-60.73h-51.3c-11.044 0-20-8.954-20-20s8.956-20 20-20h51.3v-60.728c0-6.204-5.046-11.25-11.25-11.25h-51.062c-6.204 0-11.25 5.046-11.25 11.25v2.768c0 11.046-8.956 20-20 20s-20-8.954-20-20v-2.768c0-28.26 22.99-51.25 51.25-51.25h51.062c28.26 0 51.25 22.99 51.25 51.25v161.458c0 28.26-22.99 51.25-51.25 51.25zM917.898 693.674c-29.252 0-53.050-23.798-53.050-53.050s23.798-53.050 53.050-53.050c29.252 0 53.050 23.798 53.050 53.050s-23.798 53.050-53.050 53.050zM917.898 627.576c-7.194 0-13.050 5.854-13.050 13.050s5.856 13.050 13.050 13.050c7.196 0 13.050-5.854 13.050-13.050s-5.856-13.050-13.050-13.050z" />
<glyph unicode="&#xe915;" glyph-name="toggle-on" d="M753 719h-482c-149.43 0-271-121.57-271-271s121.57-271 271-271h482c149.43 0 271 121.57 271 271s-121.57 271-271 271zM753 237c-116.346 0-211 94.652-211 211 0 116.344 94.654 211 211 211s211-94.656 211-211c0-116.348-94.654-211-211-211z" />
<glyph unicode="&#xe916;" glyph-name="toggle-off" d="M745.12 686.88h-466.24c-131.93 0-238.88-106.95-238.88-238.88s106.95-238.88 238.88-238.88v0h466.24c131.93 0 238.88 106.95 238.88 238.88s-106.95 238.88-238.88 238.88v0zM745.12 257.12h-466.24c-105.42 0-190.88 85.46-190.88 190.88s85.46 190.88 190.88 190.88v0h466.24c105.42 0 190.88-85.46 190.88-190.88s-85.46-190.88-190.88-190.88v0zM285.76 612.64c-0.047 0-0.104 0-0.16 0-90.928 0-164.64-73.712-164.64-164.64s73.712-164.64 164.64-164.64c90.928 0 164.64 73.712 164.64 164.64v0c-0.181 90.799-73.694 164.368-164.454 164.64h-0.026z" />
<glyph unicode="&#xe917;" glyph-name="steam" d="M512 948c-276.142 0-500-223.858-500-500s223.858-500 500-500 500 223.858 500 500-223.858 500-500 500zM682.584 393.73l-169.050-122.176c-6.134-66.022-62.6-117.692-130.622-117.692-0.026 0-0.056 0-0.086 0-62.408 0-114.67 43.441-128.196 101.734l-0.174 0.888-88.944 35.342v164.338l150.288-60.102c23.454 14 49.8 20.274 80.466 17.582l109.692 155.724c0.722 95.446 79.564 172.77 176.266 172.77 97.244 0 176.086-78.222 176.266-174.026-0.002-96.512-79.024-174.382-175.906-174.382zM382.912 380.094c-0.087 0-0.19 0-0.293 0-7.317 0-14.435-0.85-21.261-2.457l0.626 0.124 40.234-16.146c28.48-11.301 48.251-38.614 48.251-70.545 0-10.201-2.018-19.931-5.676-28.812l0.184 0.503c-11.72-28.31-39.126-47.864-71.099-47.864-10.469 0-20.448 2.096-29.54 5.892l0.507-0.188c-15.696 6.1-31.752 12.738-47.448 18.658 16.403-31.235 48.616-52.174 85.72-52.174 53.298 0 96.504 43.206 96.504 96.504s-43.206 96.504-96.504 96.504c-0.072 0-0.143 0-0.215 0h0.011zM682.4 684.728c-65.49 0-118.352-52.388-118.352-116.8 0-64.766 53.042-116.8 118.352-116.8 64.77-0.18 118 52.028 117.812 116.8 0.002 64.412-53.040 116.8-117.812 116.8zM682.13 497.79c-38.418 0.424-69.398 31.666-69.398 70.144 0 38.742 31.406 70.148 70.148 70.148s70.148-31.406 70.148-70.148v0c-0.144-38.771-31.608-70.146-70.4-70.146-0.175 0-0.349 0.001-0.523 0.002h0.027z" />
<glyph unicode="&#xe918;" glyph-name="bitcoin" d="M852.816 422.783c-23.79 30.763-59.689 51.893-107.695 63.377 61.133 31.183 87.999 84.108 80.623 158.784-2.466 27.079-9.95 50.548-22.468 70.44-12.527 19.897-29.433 35.893-50.78 47.993-21.33 12.116-44.53 21.339-69.544 27.698-25.021 6.359-53.746 10.976-86.158 13.844v155.081h-94.762v-150.772c-16.409 0-41.434-0.41-75.072-1.231v152.003h-94.775v-155.081c-13.543-0.412-33.438-0.621-59.693-0.621l-130.461 0.621v-100.927h68.304c31.181 0 49.437-13.952 54.77-41.846v-176.622c4.108 0 7.387-0.211 9.85-0.621h-9.85v-247.379c-3.278-20.919-15.174-31.388-35.69-31.388h-68.3l-19.080-112.62h123.081c7.796 0 19.071-0.103 33.847-0.289 14.767-0.207 25.84-0.31 33.226-0.31v-156.923h94.79v155.078c17.226-0.42 42.251-0.621 75.072-0.621v-154.458h94.765v156.923c33.649 1.638 63.493 4.699 89.533 9.227 26.053 4.529 50.983 11.594 74.773 21.242 23.788 9.635 43.682 21.643 59.68 36.003 16.006 14.347 29.226 32.612 39.706 54.77 10.445 22.158 17.121 47.799 19.983 76.935 5.356 57.012-3.88 100.914-27.674 131.69zM428.802 697.242c2.873 0 10.976 0.103 24.309 0.31 13.34 0.211 24.413 0.414 33.233 0.621 8.822 0.203 20.72-0.31 35.701-1.541 14.974-1.231 27.588-2.875 37.841-4.923s21.546-5.434 33.843-10.152c12.318-4.714 22.158-10.46 29.534-17.229 7.391-6.768 13.646-15.388 18.765-25.85 5.134-10.46 7.699-22.46 7.699-35.996 0-11.489-1.843-21.953-5.531-31.394-3.682-9.434-9.234-17.334-16.61-23.693-7.378-6.361-14.983-11.905-22.779-16.619-7.788-4.714-17.746-8.512-29.844-11.381-12.096-2.873-22.66-5.13-31.681-6.768-9.027-1.642-20.307-2.774-33.847-3.386-13.543-0.612-23.803-1.030-30.773-1.233-6.977-0.203-16.513-0.203-28.62 0-12.109 0.203-19.177 0.31-21.233 0.31v188.926h-0.006zM687.585 278.163c-3.908-9.441-8.926-17.651-15.075-24.63-6.16-6.962-14.267-13.122-24.314-18.449-10.044-5.341-19.798-9.641-29.226-12.924-9.441-3.296-20.83-6.152-34.151-8.622-13.351-2.464-25.036-4.197-35.097-5.229-10.047-1.028-22.042-1.845-35.996-2.466-13.944-0.604-24.822-0.916-32.614-0.916-7.796 0-17.645 0.112-29.543 0.313-11.905 0.192-19.487 0.295-22.772 0.295v208.012c3.278 0 13.023 0.2 29.232 0.619 16.211 0.414 29.435 0.606 39.693 0.606 10.256 0 24.415-0.606 42.473-1.845 18.041-1.222 33.222-3.061 45.54-5.522 12.303-2.466 25.73-6.255 40.305-11.389 14.56-5.126 26.361-11.381 35.39-18.765 9.027-7.398 16.612-16.819 22.764-28.31 6.167-11.484 9.243-24.615 9.243-39.389-0.002-11.499-1.949-21.945-5.852-31.388z" />
<glyph unicode="&#xe919;" glyph-name="sale" d="M992.286 156.28l-90.19 511.498c-6.21 35.228-29.69 64.337-62.807 77.863l-215.213 87.911c-9.159 3.735-18.811 6.124-28.655 7.093l-11.62 65.899c-2.707 15.356-17.342 25.607-32.708 22.902-15.358-2.707-25.611-17.351-22.902-32.707l11.621-65.906c-8.784-4.221-16.921-9.672-24.165-16.19l-24.377-21.954-3.614 3.279c-7.329 6.642-15.582 12.189-24.5 16.467l14.864 84.305c2.707 15.356-7.546 30.001-22.902 32.707-15.355 2.716-30.001-7.544-32.708-22.902l-14.867-84.31c-9.698-0.962-19.21-3.303-28.246-6.952l-217.155-87.757c-33.312-13.462-56.926-42.624-63.166-78.010l-67.277-381.553c-9.912-56.224 27.761-110.020 83.979-119.934l274.972-48.483 8.439-47.863c8.845-50.17 52.632-85.564 101.904-85.564 5.946 0 11.975 0.518 18.029 1.584l389.288 68.638c56.218 9.915 93.889 63.717 83.974 119.941zM898.506 91.955l-389.289-68.638c-12.38-2.181-24.866 0.584-35.164 7.794s-17.169 17.998-19.352 30.377l-4.869 27.618 55.132-9.722c6.008-1.060 12.096-1.596 18.197-1.596 21.046 0 41.562 6.427 59.162 18.751 22.654 15.86 37.773 39.593 42.575 66.825l67.309 381.738c6.21 35.23-5.897 70.613-32.389 94.648l-126.518 114.799 20.132 18.13c8.764 7.891 20.122 12.053 31.597 12.053 5.982 0 11.998-1.133 17.69-3.458l215.216-87.911c15.053-6.149 25.72-19.379 28.546-35.392l90.196-511.497c4.506-25.558-12.619-50.013-38.171-54.519zM87.311 258.156l67.281 381.554c2.836 16.085 13.57 29.34 28.711 35.459l213.521 86.291-6.119-34.711c-2.707-15.356 7.546-30.001 22.903-32.708 1.658-0.293 3.307-0.433 4.935-0.433 13.444 0 25.357 9.64 27.772 23.338l6.124 34.724 169.437-153.74c12.041-10.925 17.541-27.008 14.722-43.021l-67.311-381.739c-2.184-12.378-9.056-23.166-19.352-30.377s-22.783-9.975-35.164-7.794l-389.287 68.638c-25.553 4.512-42.676 28.967-38.172 54.519zM314.489 273.227l-4.508-25.564c-1.805-10.24 5.031-20.004 15.27-21.805 1.105-0.199 2.204-0.289 3.29-0.289 8.962 0 16.906 6.427 18.515 15.559l4.759 26.979c19.345 0.060 37.808 5.439 54.192 15.908 19.503 12.463 34.517 31.358 42.274 53.212 15.792 44.489-1.181 88.592-43.239 112.357-6.466 3.646-12.885 7.375-19.255 11.185l18.807 106.657c13.22-4.87 20.828-12.89 25.893-18.24 1.442-1.523 2.805-2.963 4.198-4.251 7.635-7.057 19.542-6.588 26.599 1.043s6.59 19.542-1.043 26.599c-0.473 0.437-1.461 1.479-2.415 2.488-6.825 7.211-21.091 22.276-46.635 29.775l3.887 22.050c1.805 10.238-5.031 20-15.27 21.805-10.238 1.803-20-5.030-21.805-15.27l-4.279-24.262c-3.877-0.145-7.889-0.435-12.079-0.932-30.989-3.676-57.427-25.010-68.999-55.68-10.518-27.877-6.236-57.255 11.177-76.667 9.717-10.833 22.408-21.417 40.493-33.493l-23.291-132.086c-18.334 4.229-29.509 10.144-47.436 26.973-7.579 7.114-19.492 6.74-26.607-0.837s-6.741-19.492 0.84-26.606c24.401-22.907 42.097-31.136 66.667-36.611zM412.802 349.816c-7.345-20.691-26.726-40.701-54.281-43.671l20.288 115.058c2.5-1.44 5.069-2.906 7.71-4.399 38.692-21.859 29.901-56.799 26.283-66.989zM331.848 501.025c-7.993 8.911-9.517 23.563-3.979 38.24 5.165 13.69 17.916 29.176 38.21 31.584 0.307 0.036 0.6 0.060 0.905 0.094l-15.435-87.538c-8.237 6.243-14.671 12.017-19.701 17.621z" />
<glyph unicode="&#xe91a;" glyph-name="phone-cal" d="M815.158 538.941c0-8.040-3.196-15.751-8.882-21.436-5.681-5.685-13.393-8.88-21.434-8.88h-181.895c-8.041 0-15.753 3.194-21.434 8.88-5.686 5.685-8.882 13.396-8.882 21.436v181.895c0 8.041 3.196 15.751 8.882 21.437 5.681 5.685 13.393 8.879 21.434 8.879s15.753-3.194 21.434-8.879c5.686-5.685 8.882-13.396 8.882-21.437v-108.733l190.787 190.787c2.776 2.979 6.122 5.368 9.841 7.025s7.734 2.548 11.803 2.62c4.069 0.072 8.117-0.677 11.889-2.202s7.206-3.794 10.084-6.673c2.878-2.879 5.147-6.308 6.672-10.083s2.274-7.818 2.199-11.889c-0.070-4.070-0.959-8.085-2.619-11.803-1.655-3.719-4.042-7.066-7.022-9.841l-190.787-190.787h108.733c8.041 0 15.753-3.194 21.434-8.879 5.686-5.685 8.882-13.396 8.882-21.437zM87.579 751.158c0 32.161 12.776 63.005 35.517 85.746s53.585 35.517 85.746 35.517h55.458c34.762 0 65.078-23.687 73.526-57.398l44.665-178.782c3.62-14.471 2.888-29.687-2.102-43.745s-14.017-26.329-25.95-35.278l-52.264-39.208c-5.457-4.083-6.629-10.065-5.093-14.228 22.813-62.040 58.837-118.38 105.578-165.123s103.082-82.766 165.122-105.574c4.166-1.536 10.105-0.366 14.228 5.093l39.208 52.262c8.952 11.932 21.224 20.96 35.279 25.95s29.276 5.724 43.746 2.102l178.78-44.668c33.711-8.445 57.398-38.761 57.398-73.566v-55.415c0-32.159-12.778-63.003-35.517-85.747-22.744-22.738-53.588-35.517-85.747-35.517h-90.947c-351.582 0-636.632 285.049-636.632 636.632v90.947z" />
<glyph unicode="&#xe91b;" glyph-name="mail2" d="M64 590.083v-366.078c0-33.951 13.486-66.509 37.49-90.51 24.005-24.007 56.562-37.49 90.51-37.49h640c33.946 0 66.503 13.483 90.51 37.49 24.001 24.001 37.49 56.559 37.49 90.51v366.078l-380.928-234.369c-20.171-12.407-43.389-18.978-67.072-18.978s-46.901 6.571-67.072 18.978l-380.928 234.369zM960 665.259v6.741c0 33.948-13.488 66.505-37.49 90.51-24.007 24.005-56.565 37.49-90.51 37.49h-640c-33.948 0-66.505-13.486-90.51-37.49s-37.49-56.562-37.49-90.51v-6.741l414.464-255.061c10.085-6.205 21.695-9.49 33.536-9.49s23.451 3.285 33.536 9.49l414.464 255.061z" />
<glyph unicode="&#xe91c;" glyph-name="check-box" d="M832 864h-640c-53.019 0-96-42.981-96-96v0-640c0-53.019 42.981-96 96-96v0h640c53.019 0 96 42.981 96 96v0 640c0 53.019-42.981 96-96 96v0zM758.688 585.44l-318.080-320c-5.798-5.837-13.829-9.45-22.704-9.45-8.763 0-16.704 3.523-22.483 9.229l-129.885 127.997c-5.171 5.664-8.339 13.234-8.339 21.544 0 17.673 14.327 32 32 32 8.119 0 15.531-3.023 21.173-8.006l-0.034 0.030 107.2-105.6 295.776 297.216c5.832 6.063 14.014 9.829 23.075 9.829 17.673 0 32-14.327 32-32 0-8.998-3.714-17.128-9.691-22.942l-0.007-0.007z" />
<glyph unicode="&#xe91d;" glyph-name="check" d="M512 901.333c-249.969 0-453.333-203.364-453.333-453.333s203.364-453.333 453.333-453.333 453.333 203.364 453.333 453.333-203.364 453.333-453.333 453.333zM512 48c-220.562 0-400 179.438-400 400s179.438 400 400 400 400-179.438 400-400-179.438-400-400-400zM718.865 593.922l-235.282-235.277-120.718 120.709c-10.406 10.417-27.302 10.417-37.709 0-10.417-10.412-10.417-27.297 0-37.709l139.573-139.568c5.203-5.209 12.031-7.812 18.854-7.812s13.651 2.604 18.854 7.812l254.134 254.135c10.417 10.412 10.417 27.297 0 37.709-10.406 10.416-27.302 10.416-37.708 0z" />
<glyph unicode="&#xe91e;" glyph-name="spotify" d="M512 960c-282.752 0-512-229.248-512-512s229.248-512 512-512c282.79 0 512 229.247 512 512s-229.21 512-512 512zM732.415 215.090c-7.5-12.673-23.5-17.843-37.197-11.803-2.803 1.255-5.337 2.842-7.962 4.34-50.842 30.208-105.625 48.87-163.918 57.755-35.775 5.465-71.73 7.372-107.878 5.965-46.707-1.843-92.813-8.255-138.458-18.457-4.62-0.96-9.357-1.907-14.043-1.957-14.157-0.168-26.060 9.87-28.557 23.5-2.625 14.335 4.53 27.84 17.715 33.127 2.815 1.178 5.785 1.87 8.692 2.495 37.338 8.423 75.020 14.745 113.165 17.957 21.3 1.842 42.663 2.535 64 3.75 63.105-0.665 124.877-9.215 184.792-29.505 33.087-11.085 64.665-25.535 94.63-43.418 2.625-1.497 5.248-2.995 7.63-4.837 12.060-9.215 15.223-25.88 7.388-38.912zM791.207 345.752c-10.625-17.497-32.627-22.912-50.957-12.53-10.38 5.748-20.582 11.918-31.167 17.293-48.46 24.717-99.84 40.717-153.178 50.79-41.038 7.745-82.523 11.585-126.54 11.75-54.873-0.255-111.015-7.040-165.913-23.245-8.895-2.663-17.87-2.918-26.663 0.717-14.247 5.71-23.527 20.033-23.040 35.123 0.537 15.782 10.162 29.505 25.357 34.125 15.5 4.8 31.193 8.87 46.95 12.328 38.9 8.665 78.298 13.21 118.080 14.708 85.645 3.25 169.358-7.795 250.945-33.998 41.293-13.17 80.82-30.502 118.080-52.71 1.843-1.127 3.713-2.215 5.555-3.34 19.44-11.93 21.783-35.853 12.49-51.010zM796.915 481.548c-20.747 11.712-41.907 22.335-64 31.168-43.877 17.587-89.33 29.375-135.82 37.593-32.332 5.71-64.87 9.498-97.665 11.455-34.060 2.047-68.122 2.29-102.272 0.538-39.078-2.048-77.85-6.335-116.123-14.592-14.105-3.033-28.058-6.913-42.035-10.663-8.59-2.292-16.998-2.585-25.55-0.037-18.663 5.415-31.513 22.207-32.078 41.752-0.562 19.085 11.188 36.748 29.645 42.827 13.478 4.415 27.353 7.963 41.255 11.123 34.317 7.962 69.108 12.877 104.192 16.038 37.248 3.418 74.585 4.505 111.935 3.455 92.007-2.625 182.207-16.127 269.542-46.248 35.585-12.287 69.838-27.533 102.425-46.54 11.622-6.798 19.418-16.332 22.375-29.505 0.705-3.175 0.87-6.465 1.293-9.625-0.162-34.743-36.617-56.030-67.12-38.738z" />
<glyph unicode="&#xe91f;" glyph-name="shapes" d="M571.875-64h452.125v452.125h-452.125zM631.82 328.18h332.234v-332.234h-332.234zM779.68 471.367c134.719 0 244.32 109.602 244.32 244.32 0 134.711-109.602 244.313-244.32 244.313s-244.313-109.602-244.313-244.32 109.602-244.313 244.313-244.313zM779.68 900.055c101.664 0 184.375-82.711 184.375-184.375s-82.711-184.367-184.375-184.367c-101.664 0-184.367 82.711-184.367 184.375s82.711 184.367 184.367 184.367zM0 497.375h525.406l-262.703 462.625zM102.977 557.32l159.727 281.281 159.727-281.281zM127.297 376.969l-127.297-220.484 127.297-220.484h254.594l127.305 220.484-127.305 220.492h-254.594zM347.281-4.055h-185.375l-92.688 160.539 92.688 160.547h185.375l92.688-160.547z" />
<glyph unicode="&#xe920;" glyph-name="calendar" d="M535.272 168.728h93.090v-93.090h-93.090v93.090zM535.272 331.636h93.090v-93.090h-93.090v93.090zM395.636 494.546h93.090v-93.090h-93.090v93.090zM395.636 331.636h93.090v-93.090h-93.090v93.090zM674.91 331.636h93.090v-93.090h-93.090v93.090zM814.546 331.636h93.090v-93.090h-93.090v93.090zM814.546 494.546h93.090v-93.090h-93.090v93.090zM674.91 494.546h93.090v-93.090h-93.090v93.090zM535.272 494.546h93.090v-93.090h-93.090v93.090zM116.364 331.636h93.090v-93.090h-93.090v93.090zM116.364 168.728h93.090v-93.090h-93.090v93.090zM930.91 866.91h-93.090v69.818c-0.002 12.852-10.422 23.272-23.274 23.272-12.854 0-23.272-10.42-23.272-23.272v-69.818h-558.546v69.818c0 12.852-10.42 23.272-23.274 23.272s-23.272-10.42-23.272-23.272v-69.818h-93.092c-51.412 0-93.090-41.68-93.090-93.092v-744.728c0-51.412 41.678-93.090 93.090-93.090h837.818c51.414 0 93.092 41.678 93.092 93.090v744.728c0 51.412-41.678 93.092-93.090 93.092zM977.454 29.090c0-25.706-20.84-46.546-46.546-46.546h-837.818c-25.706 0-46.546 20.84-46.546 46.546v558.546h930.91v-558.546zM977.454 634.182h-930.908v139.636c0 25.706 20.84 46.546 46.546 46.546h93.090v-69.818c0-12.854 10.42-23.272 23.272-23.272 12.854 0 23.272 10.42 23.272 23.272v69.818h558.546v-69.818c0-12.854 10.42-23.272 23.272-23.272 12.854 0 23.272 10.42 23.272 23.272v69.818h93.090c25.706 0 46.546-20.84 46.546-46.546v-139.636zM116.364 494.546h93.090v-93.090h-93.090v93.090zM395.636 168.728h93.090v-93.090h-93.090v93.090zM256 168.728h93.090v-93.090h-93.090v93.090zM256 494.546h93.090v-93.090h-93.090v93.090zM256 331.636h93.090v-93.090h-93.090v93.090z" />
<glyph unicode="&#xe921;" glyph-name="door" d="M1006.421 23.324h-136.886v866.933c0 4.322-1.593 8.491-4.471 11.713s-6.844 5.269-11.139 5.751l-462.207 52.169c-2.459 0.277-4.95 0.032-7.309-0.72s-4.532-1.993-6.377-3.642c-1.846-1.649-3.322-3.67-4.334-5.929s-1.533-4.707-1.533-7.182v-34.575h-200.115c-4.664 0-9.136-1.853-12.434-5.15s-5.15-7.77-5.15-12.434v-866.933h-136.883c-4.664 0-9.136-1.855-12.434-5.154-3.298-3.294-5.15-7.771-5.15-12.43 0-4.665 1.853-9.136 5.15-12.436s7.77-5.148 12.434-5.148h354.582v-34.577c0-4.665 1.852-9.136 5.15-12.43 3.297-3.3 7.77-5.154 12.434-5.154 0.671-0.006 1.343 0.034 2.009 0.114l461.199 52.048h153.492c4.665 0 9.136 1.849 12.436 5.148 3.294 3.3 5.148 7.771 5.148 12.436 0 4.659-1.855 9.136-5.148 12.43-3.3 3.3-7.771 5.154-12.436 5.154h-0.028zM189.635 872.673h182.531v-45.216h-119.741c-4.663 0-9.136-1.852-12.434-5.15s-5.15-7.77-5.15-12.434v-786.549h-45.216l0.010 849.349zM270.018 23.324v768.965h102.147v-768.965h-102.147zM407.333 922.742l427.039-48.23v-853.071l-427.039-48.23v949.531zM482.996 500.326c-10.35 0-20.467-3.069-29.073-8.819s-15.313-13.923-19.273-23.485c-3.961-9.562-4.997-20.084-2.978-30.235s7.003-19.475 14.321-26.794c7.319-7.319 16.643-12.303 26.794-14.322s20.673-0.982 30.235 2.978c9.562 3.961 17.735 10.668 23.485 19.273s8.819 18.723 8.819 29.072c-0.016 13.874-5.535 27.175-15.345 36.985s-23.112 15.329-36.985 15.345zM482.996 430.835c-3.395 0-6.712 1.006-9.535 2.892s-5.022 4.566-6.321 7.702c-1.299 3.136-1.639 6.587-0.977 9.916s2.297 6.387 4.697 8.787c2.4 2.4 5.458 4.035 8.788 4.697s6.779 0.323 9.915-0.977c3.136-1.299 5.816-3.499 7.702-6.321s2.892-6.14 2.892-9.535c-0.005-4.55-1.815-8.912-5.032-12.129s-7.579-5.027-12.129-5.032z" />
<glyph unicode="&#xe922;" glyph-name="open-eye" d="M1021.134 458.684c-50.758 87.737-123.745 161.325-211.070 212.803-89.979 53.042-193.048 81.079-298.061 81.079s-208.084-28.037-298.064-81.079c-87.325-51.48-160.311-125.066-211.068-212.803-3.822-6.61-3.822-14.757 0-21.368 50.756-87.739 123.743-161.328 211.068-212.803 89.982-53.044 193.050-81.081 298.064-81.081s208.082 28.037 298.061 81.081c87.325 51.478 160.311 125.064 211.070 212.803 3.822 6.613 3.822 14.757 0 21.368zM788.395 261.268c-83.421-49.175-178.995-75.168-276.395-75.168s-192.976 25.993-276.395 75.168c-77.441 45.652-142.727 110.045-189.46 186.734 46.733 76.687 112.019 141.080 189.46 186.732 83.419 49.175 178.995 75.168 276.395 75.168s192.974-25.993 276.395-75.168c77.439-45.652 142.725-110.043 189.46-186.732-46.735-76.689-112.019-141.082-189.46-186.734zM512 639.698c-105.703 0-191.696-85.993-191.696-191.696s85.993-191.698 191.696-191.698c105.703 0 191.698 85.995 191.698 191.698 0 105.701-85.997 191.696-191.698 191.696zM512 298.97c-82.175 0-149.030 66.855-149.030 149.032 0 82.175 66.855 149.030 149.030 149.030 82.177 0 149.032-66.855 149.032-149.030 0-82.177-66.855-149.032-149.032-149.032z" />
<glyph unicode="&#xe923;" glyph-name="garage" d="M949.547 605.013l-426.667 256c-6.827 4.053-15.147 4.053-21.973 0l-426.667-256c-10.027-5.973-13.44-19.2-7.253-29.227 5.973-10.027 19.2-13.44 29.227-7.253l10.453 5.973v-521.173c0-11.733 9.6-21.333 21.333-21.333h768c11.733 0 21.333 9.6 21.333 21.333v521.173l10.453-6.187c3.413-2.133 7.253-2.987 10.88-2.987 7.253 0 14.293 3.627 18.347 10.453 5.973 10.027 2.773 23.040-7.467 29.227zM789.333 74.667h-554.667v64h554.667zM789.333 181.333h-554.667v64h554.667zM789.333 288h-554.667v64h554.667zM789.333 394.667h-554.667v64h554.667zM874.667 74.667h-42.667v405.333c0 11.733-9.6 21.333-21.333 21.333h-597.333c-11.733 0-21.333-9.6-21.333-21.333v-405.333h-42.667v525.44l362.667 217.6 362.667-217.6z" />
<glyph unicode="&#xe924;" glyph-name="sharing" d="M870.4 243.2c-40.96 0-76.8-15.36-107.52-40.96l-460.8 230.4c0 5.12 0 10.24 0 20.48 0 5.12 0 10.24 0 20.48l460.8 230.4c30.72-35.84 66.56-51.2 107.52-51.2 87.040 0 153.6 66.56 153.6 153.6s-66.56 153.6-153.6 153.6-153.6-66.56-153.6-153.6v-20.48l-460.8-230.4c-25.6 30.72-61.44 46.080-102.4 46.080-87.040 0-153.6-66.56-153.6-153.6s66.56-153.6 153.6-153.6c40.96 0 76.8 15.36 107.52 40.96l460.8-230.4v-20.48c0-87.040 66.56-153.6 153.6-153.6s153.6 66.56 153.6 153.6-71.68 158.72-158.72 158.72zM870.4 857.6c30.72 0 51.2-20.48 51.2-51.2s-20.48-51.2-51.2-51.2-51.2 20.48-51.2 51.2 20.48 51.2 51.2 51.2zM153.6 396.8c-30.72 0-51.2 20.48-51.2 51.2s20.48 51.2 51.2 51.2 51.2-20.48 51.2-51.2-20.48-51.2-51.2-51.2zM870.4 38.4c-30.72 0-51.2 20.48-51.2 51.2s20.48 51.2 51.2 51.2 51.2-20.48 51.2-51.2-20.48-51.2-51.2-51.2z" />
<glyph unicode="&#xe925;" glyph-name="compare" d="M972.803 704.001c0-7.033-1.418-13.732-3.984-19.833l-0.027-0.066-0.014-0.037c-2.633-6.138-6.185-11.388-10.548-15.841l0.009 0.009-0.103-0.105c-0.010-0.010-0.019-0.016-0.025-0.025l-0.080-0.081c-0.021-0.019-0.041-0.039-0.059-0.059l-204.97-204.964c-19.994-19.994-52.413-19.994-72.408 0-19.996 19.996-19.996 52.415 0 72.408l117.396 117.396h-490.793c-28.278 0-51.201 22.921-51.201 51.199s22.923 51.201 51.201 51.201h490.793l-117.396 117.394c-19.996 19.992-19.996 52.411 0 72.408 9.996 9.998 23.099 14.996 36.205 14.996s26.205-4.996 36.205-14.996l204.912-204.911c0.019-0.019 0.037-0.038 0.055-0.057l0.001-0.001c0.019-0.016 0.035-0.035 0.052-0.052l0.080-0.080c0.044-0.042 0.086-0.085 0.126-0.13l0.006-0.006c4.352-4.444 7.903-9.692 10.408-15.497l0.127-0.331 0.021-0.048 0.023-0.056c2.52-5.834 3.986-12.626 3.986-19.761 0-0.025 0-0.051 0-0.076v0.004zM767.999 191.999c0-28.278-22.921-51.201-51.199-51.201h-490.792l117.396-117.396c19.996-19.994 19.996-52.413 0-72.408-10-9.996-23.103-14.994-36.207-14.994s-26.207 4.998-36.205 14.996l-204.8 204.798c-0.037 0.037-0.073 0.073-0.109 0.11l-0.113 0.113c-0.027 0.026-0.052 0.052-0.076 0.080l-0.001 0.002-0.029 0.029-0.099 0.103-0.004 0.004c-4.353 4.444-7.905 9.692-10.41 15.497l-0.127 0.331-0.021 0.048-0.023 0.054c-2.519 5.836-3.984 12.631-3.984 19.767 0 0.023 0 0.046 0 0.070v-0.004c0 0.021 0 0.045 0 0.069 0 13.9 5.558 26.503 14.572 35.706l-0.008-0.009 0.002 0.002 0.103 0.105 0.027 0.029 0.078 0.080 0.060 0.062 204.961 204.963c9.24 9.264 22.019 14.996 36.136 14.996 0.024 0 0.048 0 0.072 0h-0.004c0.019 0 0.041 0 0.064 0 14.119 0 26.899-5.732 36.14-14.995l0.001-0.001c19.994-19.994 19.994-52.413 0-72.408l-117.396-117.396h490.792c28.28-0.002 51.203-22.925 51.203-51.203z" />
<glyph unicode="&#xe926;" glyph-name="heart" d="M512-7.031c-14.578 0-28.633 5.281-39.586 14.875-41.367 36.172-81.25 70.164-116.438 100.148l-0.18 0.156c-103.164 87.914-192.25 163.836-254.234 238.625-69.289 83.609-101.563 162.883-101.563 249.484 0 84.141 28.852 161.766 81.234 218.586 53.008 57.492 125.742 89.156 204.828 89.156 59.109 0 113.242-18.688 160.891-55.539 24.047-18.602 45.844-41.367 65.047-67.922 19.211 26.555 41 49.32 65.055 67.922 47.648 36.852 101.781 55.539 160.891 55.539 79.078 0 151.82-31.664 204.828-89.156 52.383-56.82 81.227-134.445 81.227-218.586 0-86.602-32.266-165.875-101.555-249.477-61.984-74.797-151.063-150.711-254.211-238.617-35.25-30.031-75.195-64.078-116.656-100.336-10.945-9.578-25.008-14.859-39.578-14.859zM286.063 844.016c-62.133 0-119.211-24.797-160.734-69.828-42.141-45.711-65.352-108.898-65.352-177.93 0-72.836 27.070-137.977 87.766-211.211 58.664-70.789 145.922-145.148 246.953-231.25l0.188-0.156c35.32-30.102 75.359-64.227 117.031-100.664 41.922 36.508 82.023 70.688 117.414 100.836 101.023 86.102 188.273 160.445 246.938 231.234 60.688 73.234 87.758 138.375 87.758 211.211 0 69.031-23.211 132.219-65.352 177.93-41.516 45.031-98.602 69.828-160.727 69.828-45.516 0-87.305-14.469-124.203-43-32.883-25.438-55.789-57.594-69.219-80.094-6.906-11.57-19.063-18.477-32.523-18.477s-25.617 6.906-32.523 18.477c-13.422 22.5-36.328 54.656-69.219 80.094-36.898 28.531-78.688 43-124.195 43z" />
<glyph unicode="&#xe927;" glyph-name="size" d="M323.279 642.515c-94.313 0-171.044-76.731-171.044-171.044s76.731-171.041 171.044-171.041c94.313 0 171.044 76.728 171.044 171.041s-76.73 171.044-171.044 171.044zM323.279 356.9c-63.178 0-114.574 51.395-114.574 114.571s51.398 114.574 114.574 114.574c63.175 0 114.573-51.398 114.573-114.574s-51.398-114.571-114.573-114.571zM965.644 256.873h-216.251v58.278c0 15.595-12.643 28.238-28.238 28.238h-104.773v133.115c0 21.19-2.282 41.854-6.573 61.781l41.112 30.715c17.854 13.336 29.443 32.828 32.642 54.882 3.192 22.056-2.397 44.032-15.733 61.886l-46.935 62.827c-13.336 17.854-32.826 29.444-54.882 32.638-22.058 3.192-44.032-2.393-61.886-15.73l-41.634-31.102c-41.445 22.466-88.879 35.238-139.241 35.238-161.636-0.002-293.133-131.499-293.133-293.133v-225.769c0-75.463 61.389-136.849 136.847-136.849h554.191c15.595 0 28.238 12.643 28.238 28.232v58.284h188.018v-57.916c0-15.595 12.643-28.238 28.232-28.238 15.595 0 28.238 12.643 28.238 28.238v86.155c0 15.589-12.643 28.232-28.238 28.232zM537.922 720.262c5.768 4.309 12.864 6.116 19.998 5.083 7.127-1.032 13.423-4.777 17.734-10.545l46.937-62.83c4.31-5.769 6.116-12.869 5.084-19.996s-4.777-13.425-10.547-17.733l-25.781-19.26c-18.218 41.065-45.6 77.188-79.539 105.771l26.114 19.51zM692.923 170.357h-525.958c-44.32 0-80.376 36.057-80.376 80.378v225.769c0 130.496 106.167 236.661 236.663 236.661s236.663-106.167 236.663-236.663v-161.352c0-15.595 12.642-28.232 28.235-28.232h104.774v-116.561z" />
<glyph unicode="&#xe928;" glyph-name="bath" d="M993.882 500.706c0 23.746-9.686 46.112-27.281 62.976-17.149 16.439-39.55 25.495-63.072 25.495h-694.588v156.574c0 28.032 9.894 54.268 27.853 73.869 17.335 18.908 40.199 29.321 64.382 29.321 44.292 0 77.679-25.233 88.491-64h-13.197c-15.593 0-28.235-12.642-28.235-28.235s12.642-28.235 28.235-28.235h90.353c15.593 0 28.235 12.642 28.235 28.235s-12.642 28.235-28.235 28.235h-19.396c-5.387 30.856-19.618 58.455-41.453 79.533-27.347 26.398-64.564 40.938-104.798 40.938-40.2 0-77.847-16.915-106.012-47.638-27.531-30.048-42.694-69.832-42.694-112.023v-156.574h-32c-23.522 0-45.922-9.056-63.074-25.495-17.593-16.864-27.279-39.23-27.279-62.976s9.687-46.112 27.279-62.976c10.078-9.658 21.975-16.745 34.839-20.967v-166.521c0-81.613 49.726-151.829 120.471-181.953v-49.465c0-15.595 12.642-28.238 28.235-28.238s28.235 12.643 28.235 28.238v34.858c6.807-0.717 13.713-1.084 20.706-1.084h444.235c6.993 0 13.902 0.367 20.703 1.084v-34.858c0-15.595 12.643-28.238 28.238-28.238s28.238 12.643 28.238 28.238v49.465c70.74 30.124 120.471 100.34 120.471 181.953v166.521c12.86 4.222 24.757 11.307 34.834 20.967 17.595 16.864 27.281 39.23 27.281 62.976zM875.291 250.242c0-77.842-63.331-141.173-141.173-141.173h-444.235c-77.844 0-141.176 63.331-141.176 141.173v161.994h726.585v-161.994zM903.529 468.706h-783.059c-18.050 0-33.882 14.953-33.882 32s15.832 32 33.882 32h783.059c18.053 0 33.882-14.953 33.882-32s-15.83-32-33.882-32z" />
<glyph unicode="&#xe929;" glyph-name="bed" d="M884.284 497.501v267.972c0 54.49-44.333 98.821-98.822 98.821h-546.929c-54.49 0-98.818-44.331-98.818-98.821v-267.972c-62.788-15.104-109.598-71.7-109.598-139.057v-199.875c0-15.854 12.855-28.708 28.712-28.708h80.885v-69.445c0-15.854 12.855-28.708 28.711-28.708s28.712 12.854 28.712 28.708v69.445h629.725v-69.445c0-15.854 12.854-28.708 28.708-28.708 15.86 0 28.714 12.854 28.714 28.708v69.445h80.884c15.854 0 28.708 12.854 28.708 28.708v199.875c0.006 67.356-46.803 123.953-109.592 139.057zM197.139 765.473c0 22.826 18.572 41.397 41.395 41.397h546.929c22.829 0 41.4-18.571 41.4-41.397v-263.985h-94.883v45.297c0 75.049-61.054 136.105-136.103 136.105h-167.748c-75.049 0-136.105-61.058-136.105-136.105v-45.295h-94.884v263.983zM674.557 546.785v-45.295h-325.115v45.295c0 43.386 35.296 78.682 78.682 78.682h167.75c43.385 0.002 78.683-35.298 78.683-78.682zM87.541 187.284v171.16c0 47.211 38.409 85.62 85.621 85.62h677.674c47.212 0 85.618-38.409 85.618-85.62v-171.16h-848.913z" />
<glyph unicode="&#xe92a;" glyph-name="book-mark" d="M170.667 704c0 94.257 76.41 170.667 170.667 170.667h341.333c94.255 0 170.667-76.41 170.667-170.667v-599.757c0-69.41-78.451-109.781-134.933-69.44l-206.4 147.43-206.401-147.43c-56.48-40.341-134.932 0.030-134.932 69.44zM341.333 789.333c-47.128 0-85.333-38.205-85.333-85.333v-599.757l206.4 147.43c29.67 21.193 69.53 21.193 99.2 0l206.4-147.43v599.757c0 47.128-38.204 85.333-85.333 85.333z" />
<glyph unicode="&#xe92b;" glyph-name="new-tab" d="M789.333-21.333h-640c-58.795 0-106.667 47.872-106.667 106.667v640c0 58.795 47.872 106.667 106.667 106.667h384c11.776 0 21.333-9.557 21.333-21.333s-9.557-21.333-21.333-21.333h-384c-35.285 0-64-28.715-64-64v-640c0-35.285 28.715-64 64-64h640c35.285 0 64 28.715 64 64v384c0 11.776 9.557 21.333 21.333 21.333s21.333-9.557 21.333-21.333v-384c0-58.795-47.872-106.667-106.667-106.667zM960 576c-11.776 0-21.333 9.557-21.333 21.333v277.333h-277.333c-11.776 0-21.333 9.557-21.333 21.333s9.557 21.333 21.333 21.333h298.667c11.776 0 21.333-9.557 21.333-21.333v-298.667c0-11.776-9.557-21.333-21.333-21.333zM448 362.667c-5.461 0-10.923 2.091-15.104 6.229-8.32 8.32-8.32 21.845 0 30.165l512 512c8.32 8.32 21.845 8.32 30.165 0s8.32-21.845 0-30.165l-512-512c-4.139-4.139-9.6-6.229-15.061-6.229z" />
<glyph unicode="&#xe92c;" glyph-name="question" d="M512 960c-282.316 0-512-229.684-512-512.003s229.684-511.997 512-511.997 512 229.681 512 512-229.684 512-512 512zM512 22.142c-234.818 0-425.858 191.037-425.858 425.855s191.040 425.861 425.858 425.861 425.858-191.040 425.858-425.861-191.040-425.855-425.858-425.855zM512 767.762c-102.165 0-185.283-83.119-185.283-185.283 0-23.787 19.284-43.071 43.071-43.071s43.071 19.284 43.071 43.071c0 54.666 44.475 99.141 99.141 99.141s99.141-44.475 99.141-99.141-44.475-99.141-99.141-99.141c-23.787 0-43.071-19.284-43.071-43.071v-97.384c0-23.787 19.284-43.071 43.071-43.071s43.071 19.284 43.071 43.071v59.366c81.465 19.465 142.212 92.89 142.212 180.232 0 102.162-83.119 185.28-185.283 185.28zM572.297 196.497c0-33.301-26.996-60.297-60.297-60.297s-60.297 26.996-60.297 60.297c0 33.301 26.996 60.297 60.297 60.297s60.297-26.996 60.297-60.297z" />
<glyph unicode="&#xe92d;" glyph-name="checked" d="M49.778 448c0 255.289 206.933 462.222 462.222 462.222s462.222-206.933 462.222-462.222c0-255.289-206.933-462.222-462.222-462.222s-462.222 206.933-462.222 462.222zM683.139 533.997c2.844 3.79 4.904 8.111 6.053 12.707 1.155 4.597 1.371 9.378 0.649 14.061s-2.372 9.175-4.858 13.211c-2.48 4.036-5.751 7.534-9.603 10.289-3.857 2.756-8.226 4.713-12.846 5.757-4.625 1.043-9.409 1.153-14.074 0.32s-9.114-2.588-13.090-5.165c-3.977-2.577-7.401-5.923-10.064-9.841l-153.412-214.757-76.989 76.992c-6.74 6.281-15.655 9.7-24.867 9.537s-18-3.894-24.514-10.408c-6.514-6.514-10.246-15.303-10.408-24.514s3.256-18.127 9.537-24.867l106.667-106.668c3.65-3.647 8.050-6.457 12.894-8.232s10.018-2.475 15.16-2.048c5.142 0.421 10.131 1.957 14.619 4.506 4.488 2.543 8.368 6.036 11.372 10.234l177.776 248.887z" />
<glyph unicode="&#xe92e;" glyph-name="stack-overflow" d="M85.333 296.875v-328.875c0-17.664 14.336-32 32-32h789.333c17.664 0 32 14.336 32 32v328.875c0 42.325-64 42.368-64 0v-296.875h-725.333v296.875c0 42.325-64 42.325-64 0zM283.52 100.437h415.445c42.325 0 42.368 64 0 64h-415.445c-42.325 0-42.368-64 0-64zM283.349 297.856c433.195-88.704 406.955-84.181 413.269-84.181 38.272 0 43.947 55.637 6.4 63.36l-406.784 83.541c-41.472 8.491-54.4-54.187-12.885-62.72zM335.104 519.424c389.163-193.024 370.859-188.629 385.109-188.629 33.707 0 44.373 45.611 14.293 60.629l-370.816 185.259c-37.76 18.944-66.475-38.315-28.587-57.259zM429.739 686.080l324.949-250.069c33.024-25.472 73.045 24.533 39.040 50.688l-324.949 250.069c-33.536 25.899-72.619-24.875-39.040-50.688zM883.072 562.816l-244.139 320.555c-25.6 33.664-76.587-5.077-50.901-38.784l244.139-320.555c25.429-33.451 76.757 4.821 50.901 38.784z" />
<glyph unicode="&#xe92f;" glyph-name="slack" d="M641.636 487.228c58.516 0 106.122 47.608 106.122 106.126v260.524c0 58.516-47.606 106.122-106.122 106.122-58.518 0-106.126-47.606-106.126-106.122v-260.526c0.002-58.516 47.61-106.124 106.126-106.124zM841.754 487.228h76.126c58.516 0 106.122 47.608 106.122 106.126 0 58.516-47.606 106.122-106.122 106.122-58.518 0-106.126-47.606-106.126-106.122v-76.126c0-16.568 13.432-30 30-30zM106.122 471.51h260.524c58.516 0 106.122 47.608 106.122 106.126 0 58.514-47.606 106.12-106.122 106.12h-260.524c-58.516-0.002-106.122-47.608-106.122-106.122 0-58.516 47.606-106.124 106.122-106.124zM366.644 747.756h76.122c16.568 0 30 13.432 30 30v76.122c0 58.516-47.606 106.122-106.122 106.122s-106.122-47.606-106.122-106.122 47.606-106.122 106.122-106.122zM382.364 408.772c-58.516 0-106.122-47.608-106.122-106.126v-260.522c0-58.518 47.606-106.126 106.122-106.126 58.52 0 106.128 47.608 106.128 106.126v260.522c0 58.518-47.61 106.126-106.128 106.126zM182.246 408.772h-76.124c-58.516 0-106.122-47.608-106.122-106.126 0-58.516 47.606-106.122 106.122-106.122 58.518 0 106.126 47.606 106.126 106.122v76.126c-0.002 16.568-13.434 30-30.002 30zM917.878 424.494h-260.522c-58.516 0-106.122-47.608-106.122-106.126 0-58.514 47.606-106.12 106.122-106.12h260.524c58.516 0 106.122 47.606 106.122 106.12-0.002 58.518-47.608 106.126-106.124 106.126zM657.356 148.248h-76.122c-16.568 0-30-13.432-30-30v-76.124c0-58.518 47.606-106.126 106.122-106.126 58.518 0 106.126 47.608 106.126 106.126-0.002 58.516-47.608 106.124-106.126 106.124z" />
<glyph unicode="&#xe930;" glyph-name="skype" d="M897.024 361.984c59.392 266.24-174.080 507.904-448.512 461.824-148.48 92.16-346.112-12.288-346.112-189.44 0-40.96 11.264-79.872 30.72-112.64-54.272-267.264 180.224-505.856 454.656-455.68 193.536-102.4 406.528 101.376 309.248 295.936zM636.928 201.216c-71.68-29.696-190.464-29.696-262.144 8.192-102.4 54.272-119.808 177.152-31.744 177.152 66.56 0 45.056-77.824 112.64-108.544 30.72-14.336 97.28-15.36 135.168 10.24s34.816 65.536 14.336 83.968c-54.272 50.176-210.944 30.72-282.624 118.784-30.72 37.888-36.864 105.472 1.024 154.624 66.56 86.016 262.144 91.136 346.112 26.624 77.824-60.416 56.32-139.264-6.144-139.264-74.752 0-35.84 98.304-157.696 98.304-88.064 0-122.88-62.464-60.416-93.184 83.968-43.008 297.984-28.672 297.984-192.512 0-67.584-41.984-117.76-106.496-144.384z" />
<glyph unicode="&#xe931;" glyph-name="digg" d="M172.924 623.28h-172.924v-347.246h288.186v496.845h-115.261v-149.599zM169.254 383.304h-57.663v142.745h57.663v-142.745zM437.038 271.746h168.474v-43.986h-168.474v-104.703h283.8v498.34h-283.8v-349.65zM544.795 511.267h57.436v-142.712h-57.436v142.712zM740.265 621.363v-349.617h168.441v-43.856h-168.441v-104.768h283.735v498.307l-283.735-0.065zM905.458 368.587h-57.468v142.712h57.468v-142.712zM302.87 771.417h115.326v-97.426h-115.326v97.426zM302.87 621.818h115.326v-348.545h-115.326v348.545z" />
<glyph unicode="&#xe932;" glyph-name="vimeo" d="M587.571 654.391c116.605 70.014 179.452-28.671 119.677-140.221-59.903-111.998-114.878-185.020-143.357-185.020-27.967 0-50.111 75.134-82.878 205.564-33.599 135.101-33.599 378.68-174.14 351.032-132.861-26.239-306.873-234.235-306.873-234.235l41.343-54.463c0 0 85.758 67.647 114.302 33.983 28.927-33.983 138.429-442.039 174.652-517.493 31.615-66.111 119.357-153.341 215.227-91.134 96.766 62.591 416.183 335.353 473.398 658.098 57.087 322.169-385.016 254.715-431.351-26.111z" />
<glyph unicode="&#xe933;" glyph-name="youtube" d="M971.719 687.947c-11.062 41.127-43.488 73.547-84.609 84.621-75.123 20.555-375.621 20.555-375.621 20.555s-300.486 0-375.609-19.775c-40.33-11.062-73.547-44.279-84.609-85.4-19.77-75.117-19.77-230.9-19.77-230.9s0-156.568 19.77-230.9c11.074-41.121 43.488-73.541 84.615-84.615 75.908-20.561 375.615-20.561 375.615-20.561s300.486 0 375.609 19.775c41.127 11.068 73.547 43.488 84.621 84.609 19.764 75.123 19.764 230.9 19.764 230.9s0.791 156.574-19.775 231.691zM415.816 313.129v287.836l249.879-143.918z" />
<glyph unicode="&#xe934;" glyph-name="pinterest" d="M525.92 960c-280.653 0-429.907-179.848-429.907-375.953 0-90.948 50.818-204.361 132.166-240.331 12.353-5.568 19.073-3.2 21.825 8.256 2.432 8.704 13.121 50.626 18.305 70.403 1.6 6.336 0.768 11.841-4.352 17.793-27.009 31.233-48.45 88.132-48.45 141.51 0 136.774 108.741 269.58 293.773 269.58 160.007 0 271.948-103.941 271.948-252.619 0-168.008-88.9-284.237-204.425-284.237-63.939 0-111.557 50.178-96.452 112.261 18.241 73.923 54.018 153.415 54.018 206.729 0 47.81-27.009 87.364-82.18 87.364-65.091 0-117.893-64.451-117.893-150.983 0-54.978 19.457-92.1 19.457-92.1s-64.387-260.108-76.355-308.686c-20.225-82.244 2.752-215.434 4.736-226.89 1.216-6.336 8.32-8.32 12.289-3.136 6.336 8.32 84.164 119.365 105.989 199.625 7.936 29.249 40.514 147.847 40.514 147.847 21.441-38.722 83.332-71.171 149.255-71.171 196.105 0 337.807 172.36 337.807 386.257-0.704 205.065-176.2 358.48-402.066 358.48z" />
<glyph unicode="&#xe935;" glyph-name="google-plus" d="M931.115 576h-93.312v-92.885h-92.885v-93.312h92.885v-92.885h93.312v92.885h92.885v93.312h-92.885zM320 128c184.661 0 307.328 129.621 307.328 312.576 0 20.949-2.176 37.12-5.205 53.248h-302.080v-109.995h181.632c-7.424-46.72-54.997-137.941-181.632-137.941-109.099 0-198.187 90.368-198.187 202.112s89.045 202.155 198.187 202.155c62.421 0 103.893-26.624 127.488-49.323l86.869 83.371c-55.936 52.352-127.957 83.797-214.4 83.797-176.811 0-320-143.189-320-320s143.189-320 320-320z" />
<glyph unicode="&#xe936;" glyph-name="twitter" d="M920.576 701.952c-30.72-13.312-62.464-22.528-96.256-26.624 34.816 20.48 61.44 53.248 73.728 93.184-32.768-19.456-68.608-32.768-106.496-40.96-30.72 32.768-74.752 53.248-122.88 53.248-93.184 0-167.936-75.776-167.936-167.936 0-13.312 1.024-25.6 4.096-37.888-139.264 6.144-262.144 73.728-345.088 175.104-59.392-106.496 7.168-194.56 51.2-224.256-26.624 0-53.248 8.192-75.776 20.48 0-82.944 58.368-151.552 134.144-166.912-16.384-5.12-53.248-8.192-75.776-3.072 21.504-66.56 83.968-115.712 156.672-116.736-57.344-45.056-141.312-80.896-248.832-69.632 74.752-48.128 162.816-75.776 258.048-75.776 309.248 0 477.184 256 477.184 477.184 0 7.168 0 14.336-1.024 21.504 34.816 25.6 63.488 55.296 84.992 89.088z" />
<glyph unicode="&#xe937;" glyph-name="behance" d="M527.488 322.261c0 78.848-37.504 137.131-114.987 158.976 56.533 26.923 86.016 67.712 86.016 131.157 0 125.099-93.525 155.605-201.429 155.605h-297.088v-628.096h305.408c114.517 0 222.080 54.741 222.080 182.357zM138.496 660.779h129.963c49.963 0 94.933-13.995 94.933-71.765 0-53.333-34.987-74.795-84.48-74.795h-140.416zM138.453 246.571v172.971h150.955c60.971 0 99.541-25.344 99.541-89.685 0-63.445-46.037-83.285-102.4-83.285zM801.963 128c108.971 0 179.541 48.939 213.504 152.96h-110.592c-11.904-38.827-60.971-59.349-99.029-59.349-73.429 0-112 42.88-112 115.755h329.088c10.411 145.835-70.827 270.123-221.013 270.123-139.051 0-233.429-104.192-233.429-240.683 0-141.653 89.429-238.805 233.472-238.805zM798.037 513.109c62.933 0 94.592-36.864 99.883-97.152h-203.904c4.139 59.776 43.947 97.152 104.021 97.152zM668.459 735.019h255.488v-61.867h-255.488z" />
<glyph unicode="&#xe938;" glyph-name="dribble" d="M630.72 474.98c-10.38 24-21.2 47.96-32.74 71.66 98.54 42.68 177.74 100.64 236.74 174.14 57.56-68.020 93.7-154.4 99.020-248.94-109.86 17.98-210.9 18.98-303.020 3.14zM746.76 96.44c-18.68 100.36-46.1 198.5-81.9 294.24 80.020 11.32 168.12 8.38 264.46-8.38-18.64-118.86-86.48-221.54-182.56-285.86zM252.44 114.76c84 131.78 191.26 217.56 324.16 257.16 39.54-103.28 68.66-209.48 87.18-318.28-138.44-53.5-294-30.52-411.34 61.12zM89.62 458.9c164.18 0.24 305.82 19.1 424.5 56.44 9.94-20.26 19.46-40.62 28.56-61.12-144.14-45.040-262.98-137.42-355.66-276.48-66.72 80.080-99.94 177.2-97.4 281.16zM321.18 824.96c56.82-74.34 107.12-150.98 150.9-229.62-103.7-30.52-227.44-46.2-370.54-47.18 29.56 120.96 111 221.56 219.64 276.8zM769.84 782.52c-51.4-66.28-122.36-118.7-212.78-156.98-43.32 79.38-92.84 156.82-148.78 231.98 126.64 32.3 257.64 5.26 361.56-75zM511.98 960c-282.76 0-511.98-229.24-511.98-512s229.22-512 511.98-512c282.8 0 512.020 229.24 512.020 512s-229.24 512-512.020 512z" />
<glyph unicode="&#xe939;" glyph-name="instagram" d="M767.994 960h-511.988c-140.784 0-255.994-115.21-255.994-255.994v-512.012c0-140.747 115.21-255.994 255.994-255.994h511.988c140.784 0 255.994 115.247 255.994 255.994v512.012c0 140.784-115.21 255.994-255.994 255.994zM938.652 191.994c0-94.078-76.528-170.658-170.658-170.658h-511.988c-94.090 0-170.658 76.581-170.658 170.658v512.012c0 94.103 76.568 170.658 170.658 170.658h511.988c94.13 0 170.658-76.556 170.658-170.658v-512.012zM853.367 725.343c0-35.345-28.653-63.998-63.998-63.998s-63.998 28.653-63.998 63.998c0 35.345 28.653 63.998 63.998 63.998s63.998-28.653 63.998-63.998zM512 704.006c-141.412 0-255.994-114.595-255.994-255.994 0-141.347 114.582-256.019 255.994-256.019 141.372 0 255.994 114.672 255.994 256.019 0 141.399-114.622 255.994-255.994 255.994zM512 277.329c-94.245 0-170.658 76.413-170.658 170.683s76.413 170.658 170.658 170.658 170.658-76.388 170.658-170.658-76.413-170.683-170.658-170.683z" />
<glyph unicode="&#xe93a;" glyph-name="facebook" d="M591.302-64v467.060h156.71l23.511 182.076h-180.221v116.229c0 52.699 14.574 88.612 90.229 88.612l96.335 0.040v162.855c-16.66 2.165-73.847 7.129-140.407 7.129-138.987 0-234.141-84.837-234.141-240.603v-134.261h-157.185v-182.076h157.185v-467.060h187.983z" />
<glyph unicode="&#xe93b;" glyph-name="linkedin2" d="M921.6 960h-819.2c-56.32 0-102.4-46.080-102.4-102.4v-819.2c0-56.32 46.080-102.4 102.4-102.4h819.2c56.32 0 102.4 46.080 102.4 102.4v819.2c0 56.32-46.080 102.4-102.4 102.4zM307.2 89.6h-153.6v460.8h153.6v-460.8zM230.4 637.44c-51.2 0-92.16 40.96-92.16 92.16s40.96 92.16 92.16 92.16 92.16-40.96 92.16-92.16-40.96-92.16-92.16-92.16zM870.4 89.6h-153.6v271.36c0 40.958-35.84 76.8-76.8 76.8s-76.8-35.842-76.8-76.8v-271.36h-153.6v460.8h153.6v-61.44c25.6 40.96 81.92 71.68 128 71.68 97.28 0 179.2-81.92 179.2-179.2v-291.84z" />
<glyph unicode="&#xe93c;" glyph-name="linkedin" d="M921.6 38.4v300.032c0 147.456-31.744 260.096-203.776 260.096-82.944 0-138.24-45.056-160.768-88.064h-2.048v74.752h-162.816v-546.816h169.984v271.36c0 71.68 13.312 140.288 101.376 140.288 87.040 0 88.064-80.896 88.064-144.384v-266.24h169.984zM115.712 585.216h169.984v-546.816h-169.984zM200.704 857.6c-54.272 0-98.304-44.032-98.304-98.304s44.032-99.328 98.304-99.328 98.304 45.056 98.304 99.328-44.032 98.304-98.304 98.304z" />
<glyph unicode="&#xe93d;" glyph-name="angle-down" d="M512 256c-8.184 0-16.376 3.128-22.624 9.376l-320 320c-12.504 12.504-12.504 32.752 0 45.248s32.752 12.504 45.248 0l297.376-297.376 297.376 297.376c12.504 12.504 32.752 12.504 45.248 0s12.504-32.752 0-45.248l-320-320c-6.248-6.248-14.44-9.376-22.624-9.376z" />
<glyph unicode="&#xe93e;" glyph-name="minus" d="M61.438 386.554h901.124c33.939 0 61.446 27.508 61.446 61.455 0 33.939-27.499 61.446-61.446 61.446h-901.124c-33.93-0.008-61.438-27.516-61.438-61.455s27.508-61.446 61.438-61.446z" />
<glyph unicode="&#xe93f;" glyph-name="plus" d="M984 488h-432v432c0 22.092-17.908 40-40 40s-40-17.908-40-40v-432h-432c-22.092 0-40-17.908-40-40s17.908-40 40-40h432v-432c0-22.092 17.908-40 40-40s40 17.908 40 40v432h432c22.092 0 40 17.908 40 40s-17.908 40-40 40z" />
<glyph unicode="&#xe940;" glyph-name="angle-up" d="M892.928 224.768c-8.397 0-16.794 3.174-23.194 9.574l-357.734 357.786-357.734-357.734c-12.8-12.8-33.536-12.8-46.336 0s-12.8 33.536 0 46.336l380.928 380.928c12.8 12.8 33.536 12.8 46.336 0l380.928-380.928c12.8-12.8 12.8-33.536 0-46.336-6.4-6.451-14.797-9.626-23.194-9.626z" />
<glyph unicode="&#xe941;" glyph-name="size1" horiz-adv-x="970" d="M404.211 771.368c0-10.72-4.259-21.002-11.839-28.582s-17.862-11.839-28.582-11.839h-104.691l92.968-92.564c7.612-7.612 11.888-17.935 11.888-28.699s-4.276-21.087-11.888-28.699c-7.612-7.612-17.935-11.888-28.699-11.888s-21.087 4.276-28.699 11.888l-92.564 92.968v-104.691c0-10.72-4.259-21.002-11.839-28.582s-17.862-11.839-28.582-11.839c-10.72 0-21.002 4.259-28.582 11.839s-11.839 17.862-11.839 28.582v202.105c0.015 7.964 2.383 15.746 6.805 22.37s10.703 11.792 18.054 14.858c4.925 2.084 10.215 3.168 15.562 3.193h202.105c10.72 0 21.002-4.259 28.582-11.839s11.839-17.862 11.839-28.582zM363.789 165.053h-104.691l92.968 92.564c7.612 7.61 11.888 17.936 11.888 28.699s-4.276 21.089-11.888 28.699c-7.612 7.61-17.935 11.889-28.699 11.889s-21.087-4.279-28.699-11.889l-92.564-92.968v104.691c0 10.72-4.259 21.003-11.839 28.58-7.58 7.583-17.862 11.841-28.582 11.841s-21.002-4.258-28.582-11.841c-7.58-7.578-11.839-17.861-11.839-28.58v-202.105c0.045-10.606 4.254-20.766 11.722-28.295 3.719-3.638 8.084-6.51 12.935-8.488 4.956-2.264 10.318-3.498 15.764-3.638h202.105c10.72 0 21.002 4.258 28.582 11.841 7.58 7.578 11.839 17.861 11.839 28.58s-4.259 21.003-11.839 28.58c-7.58 7.583-17.862 11.841-28.582 11.841zM845.608 786.728c-3.023 7.388-8.17 13.713-14.789 18.174-6.624 4.461-14.417 6.858-22.399 6.887h-202.105c-10.72 0-21.003-4.259-28.58-11.839-7.583-7.58-11.841-17.862-11.841-28.582s4.258-21.002 11.841-28.582c7.578-7.58 17.861-11.839 28.58-11.839h104.691l-92.968-92.564c-3.767-3.769-6.758-8.243-8.796-13.167-2.043-4.924-3.094-10.202-3.094-15.532s1.051-10.608 3.094-15.532c2.037-4.924 5.028-9.398 8.796-13.167s8.241-6.758 13.166-8.798c4.926-2.040 10.202-3.090 15.532-3.090s10.606 1.050 15.532 3.090c4.926 2.039 9.399 5.029 13.166 8.798l92.564 92.968v-104.691c0-10.72 4.258-21.002 11.841-28.582 7.578-7.58 17.861-11.839 28.58-11.839s21.003 4.259 28.58 11.839c7.583 7.58 11.841 17.862 11.841 28.582v202.105c-0.065 5.282-1.164 10.5-3.234 15.36zM808.421 367.158c-10.72 0-21.003-4.258-28.58-11.841-7.583-7.578-11.841-17.861-11.841-28.58v-104.691l-92.564 92.968c-7.61 7.61-17.936 11.889-28.699 11.889s-21.089-4.279-28.699-11.889c-7.61-7.61-11.889-17.936-11.889-28.699s4.279-21.089 11.889-28.699l92.968-92.564h-104.691c-10.72 0-21.003-4.258-28.58-11.841-7.583-7.578-11.841-17.861-11.841-28.58s4.258-21.003 11.841-28.58c7.578-7.583 17.861-11.841 28.58-11.841h202.105c5.147 0.113 10.224 1.213 14.956 3.234 9.879 4.101 17.726 11.948 21.827 21.827 2.21 4.829 3.449 10.051 3.638 15.36v202.105c0 10.72-4.258 21.003-11.841 28.58-7.578 7.583-17.861 11.841-28.58 11.841z" />
<glyph unicode="&#xe942;" glyph-name="star-active" d="M1024 564.368l-372.078 24.462-140.126 352.032-140.126-352.032-371.67-24.462 285.068-242.052-93.544-367.178 320.272 202.442 320.274-202.442-93.544 367.178z" />
<glyph unicode="&#xe943;" glyph-name="book-mark2" d="M810.677 960h-594.137c-48.388 0-90.875-39.807-90.875-86.925v-878.908c0-15.772 4.39-28.917 11.464-39.073 8.461-12.141 22.084-19.099 36.692-19.095 13.811 0 28.516 6.148 42.096 17.747l265.816 225.691c8.21 7.012 20.002 11.030 32.264 11.030 12.256 0 24.025-4.018 32.259-11.049l264.928-225.638c13.628-11.633 27.319-17.786 41.106-17.786 23.315 0 46.041 17.984 46.041 58.167v878.913c0 47.118-39.266 86.925-87.654 86.925z" />
<glyph unicode="&#xe944;" glyph-name="star" d="M1024 564.362l-371.866 24.456-140.134 352.040-140.134-352.042-371.866-24.456 285.316-241.86-93.604-367.358 320.288 202.43 320.288-202.43-93.6 367.342 285.312 241.878zM512 228.552l-224.928-142.16 65.654 257.662-201.068 170.17 261.942 17.206 98.4 247.196 98.4-247.198 262.248-17.204-201.378-170.154 65.658-257.678-224.928 142.16z" />
<glyph unicode="&#xe945;" glyph-name="email" d="M873.952 832h-723.904c-65.167-0.073-117.975-52.881-118.048-118.041v-531.911c0.073-65.167 52.881-117.975 118.041-118.048h723.911c65.167 0.073 117.975 52.881 118.048 118.041v531.911c-0.073 65.167-52.881 117.975-118.041 118.048h-0.007zM150.048 768h723.904c29.835-0.036 54.012-24.213 54.048-54.044v-24.484l-416-267.424-416 267.424v24.48c0.036 29.835 24.213 54.012 54.044 54.048h0.004zM873.952 128h-723.904c-29.835 0.036-54.012 24.213-54.048 54.044v431.332l398.688-256.288c4.892-3.19 10.881-5.087 17.312-5.087s12.42 1.897 17.436 5.163l-0.124-0.075 398.688 256.288v-431.328c-0.036-29.835-24.213-54.012-54.044-54.048h-0.004z" />
<glyph unicode="&#xe946;" glyph-name="incoming-call" d="M900.267 268.8c-4.267 14.933-17.067 25.6-34.133 27.733l-211.2 38.4c-34.133 6.4-53.333-25.6-64-51.2h-2.133c-51.2 27.733-96 64-136.533 102.4-40.533 40.533-74.667 87.467-104.533 138.667v2.133c25.6 12.8 57.6 29.867 51.2 64 0 0-38.4 211.2-38.4 211.2-2.133 14.933-12.8 29.867-27.733 34.133-108.8 40.533-232.533-55.467-217.6-172.8v-2.133c42.667-320 292.267-567.467 610.133-612.267h2.133c117.333-12.8 213.333 110.933 172.8 219.733zM829.867 130.133c-25.6-27.733-64-38.4-100.267-36.267-298.667 42.667-529.067 273.067-571.733 571.733-12.8 87.467 78.933 162.133 162.133 130.133l38.4-211.2c-8.533-6.4-17.067-12.8-27.733-17.067-23.467-10.667-34.133-40.533-21.333-61.867 29.867-53.333 66.133-102.4 110.933-147.2 42.667-42.667 93.867-81.067 147.2-110.933 21.333-12.8 53.333-2.133 61.867 21.333 4.267 10.667 10.667 19.2 17.067 27.733l211.2-38.4c17.067-46.933 6.4-96-27.733-128zM597.333 509.867c-6.4 6.4-8.533 14.933-8.533 21.333l4.267 194.133c0 12.8 10.667 21.333 21.333 21.333 12.8 0 21.333-10.667 21.333-21.333l-4.267-149.333 192 192c8.533 8.533 21.333 8.533 29.867 0s8.533-21.333 0-29.867l-192-192 149.333 4.267c27.733 0 29.867-40.533 2.133-42.667 0 0-194.133-4.267-194.133-4.267-6.4-4.267-14.933 0-21.333 6.4z" />
<glyph unicode="&#xe947;" glyph-name="image2" d="M972.8 823.466h-921.6c-28.234 0-51.2-22.966-51.2-51.2v-648.534c0-28.234 22.966-51.2 51.2-51.2h921.6c28.234 0 51.2 22.966 51.2 51.2v253.1c0 0.004 0 0.006 0 0.010v395.424c0 28.234-22.966 51.2-51.2 51.2zM51.2 106.666c-9.408 0-17.066 7.658-17.066 17.066v211.726l158.742 158.75c6.416 6.5 17.35 6.584 23.934-0.084l168.686-168.53-218.994-218.928h-115.302zM989.866 123.734c0-9.408-7.658-17.066-17.066-17.066h-758.024l507.166 507.008c6.416 6.5 17.358 6.584 23.926-0.084l244-243.836v-246.022zM989.866 418.020l-219.792 219.638c-19.35 19.584-53.142 19.5-72.342 0.084l-288.1-288.018-168.622 168.466c-19.35 19.584-53.142 19.508-72.342 0.074l-134.534-134.54v388.542c0 9.408 7.658 17.066 17.066 17.066h921.6c9.408 0 17.066-7.658 17.066-17.066v-354.246zM426.666 704c-56.466 0-102.4-45.934-102.4-102.4s45.934-102.4 102.4-102.4c56.466 0 102.4 45.934 102.4 102.4s-45.932 102.4-102.4 102.4zM426.666 533.334c-37.642 0-68.266 30.626-68.266 68.266s30.624 68.266 68.266 68.266c37.642 0 68.266-30.626 68.266-68.266s-30.624-68.266-68.266-68.266z" />
<glyph unicode="&#xe948;" glyph-name="close" d="M50-64c-0.003 0-0.006 0-0.009 0-27.614 0-50 22.386-50 50 0 13.809 5.598 26.311 14.649 35.36l924 924c9.049 9.049 21.551 14.647 35.36 14.647 27.618 0 50.007-22.389 50.007-50.007 0-13.809-5.597-26.311-14.647-35.36l-924-924c-9.026-9.045-21.506-14.64-35.293-14.64-0.024 0-0.047 0-0.071 0h0.004zM974-64c-0.020 0-0.044 0-0.067 0-13.787 0-26.266 5.595-35.292 14.639l-924.001 924.001c-9.049 9.049-14.647 21.551-14.647 35.36 0 27.618 22.389 50.007 50.007 50.007 13.809 0 26.311-5.597 35.36-14.647l924-924c9.051-9.049 14.649-21.551 14.649-35.36 0-27.614-22.386-50-50-50-0.003 0-0.007 0-0.010 0v0z" />
<glyph unicode="&#xe949;" glyph-name="filter" d="M756.776 148.284v-180.284c0-17.672 14.328-32 32-32s32 14.328 32 32v180.284c58.068 14.372 101.254 66.898 101.254 129.344 0 62.448-43.186 114.976-101.254 129.348v521.024c0 17.672-14.328 32-32 32s-32-14.328-32-32v-521.026c-58.070-14.372-101.256-66.9-101.256-129.348 0-62.446 43.188-114.972 101.256-129.342zM788.776 346.884c38.186 0 69.254-31.068 69.254-69.258 0-38.186-31.068-69.254-69.254-69.254-38.188 0-69.256 31.068-69.256 69.254 0 38.19 31.068 69.258 69.256 69.258zM480 489.026v-521.026c0-17.672 14.328-32 32-32s32 14.328 32 32v521.026c58.070 14.372 101.256 66.898 101.256 129.346s-43.186 114.974-101.256 129.346v180.282c0 17.672-14.328 32-32 32s-32-14.328-32-32v-180.284c-58.068-14.372-101.254-66.898-101.254-129.346s43.186-114.974 101.254-129.344zM512 687.626c38.188 0 69.256-31.068 69.256-69.256s-31.068-69.256-69.256-69.256c-38.186 0-69.254 31.068-69.254 69.256s31.066 69.256 69.254 69.256zM101.97 277.626c0-62.446 43.186-114.972 101.254-129.344v-180.282c0-17.672 14.328-32 32-32s32 14.328 32 32v180.284c58.070 14.372 101.256 66.898 101.256 129.344 0 62.448-43.186 114.976-101.256 129.348v521.024c0 17.672-14.328 32-32 32s-32-14.328-32-32v-521.026c-58.068-14.37-101.254-66.9-101.254-129.348zM235.224 346.884c38.188 0 69.256-31.068 69.256-69.258 0-38.186-31.068-69.254-69.256-69.254-38.186 0-69.254 31.068-69.254 69.254 0 38.19 31.068 69.258 69.254 69.258z" />
<glyph unicode="&#xe94a;" glyph-name="arrow-left" d="M55.159 478.165l298.667 298.667c7.665 7.41 18.12 11.977 29.641 11.977 23.564 0 42.667-19.103 42.667-42.667 0-11.521-4.567-21.976-11.989-29.653l-225.823-225.823h750.336c23.564 0 42.667-19.103 42.667-42.667s-19.103-42.667-42.667-42.667v0h-750.336l225.835-225.835c8.036-7.769 13.026-18.647 13.026-30.69 0-23.564-19.103-42.667-42.667-42.667-12.043 0-22.92 4.989-30.678 13.014l-298.679 298.679c-7.718 7.721-12.492 18.386-12.492 30.165s4.774 22.445 12.492 30.165v0z" />
<glyph unicode="&#xe94b;" glyph-name="arrow-right" d="M968.832 478.165l-298.667 298.667c-7.665 7.41-18.12 11.977-29.641 11.977-23.564 0-42.667-19.103-42.667-42.667 0-11.521 4.567-21.976 11.989-29.653l225.823-225.823h-750.336c-23.564 0-42.667-19.103-42.667-42.667s19.103-42.667 42.667-42.667v0h750.336l-225.835-225.835c-8.036-7.769-13.026-18.647-13.026-30.69 0-23.564 19.103-42.667 42.667-42.667 12.043 0 22.92 4.989 30.678 13.014l298.679 298.679c7.718 7.721 12.492 18.386 12.492 30.165s-4.774 22.445-12.492 30.165v0z" />
<glyph unicode="&#xe94c;" glyph-name="bath1" d="M569.817 228.641c-1.084 15.619-14.62 27.395-30.233 26.311s-27.391-14.619-26.307-30.232l1.895-27.305c1.082-15.595 14.594-27.389 30.233-26.305 15.612 1.084 27.391 14.619 26.307 30.232l-1.895 27.299zM704.12 298.406c-6.319 14.324-23.046 20.805-37.364 14.493-14.318-6.319-20.805-23.046-14.487-37.364l10.391-23.558c6.313-14.318 23.040-20.805 37.364-14.487 14.318 6.319 20.805 23.046 14.487 37.364l-10.391 23.552zM835.349 366.815c-10.8 11.324-28.738 11.753-40.062 0.951-11.33-10.799-11.752-28.737-0.952-40.061l18.89-19.805c10.794-11.324 28.732-11.758 40.062-0.952 11.324 10.8 11.752 28.738 0.952 40.062l-18.89 19.805zM535.97 82.221c-15.631-0.765-27.684-14.059-26.921-29.69l1.381-28.25c0.763-15.637 14.057-27.69 29.686-26.925 15.631 0.765 27.684 14.059 26.921 29.69l-1.381 28.25c-0.764 15.637-14.063 27.678-29.687 26.925zM700.609 122.013c-4.445 15.005-20.221 23.564-35.226 19.113-15.005-4.445-23.564-20.215-19.113-35.22l7.566-25.528c4.451-15.023 20.239-23.558 35.226-19.113 15.005 4.445 23.564 20.215 19.113 35.22l-7.566 25.528zM833.789 188.639c-8.084 13.396-25.504 17.709-38.9 9.626-13.402-8.084-17.715-25.504-9.632-38.906l13.752-22.793c8.084-13.402 25.504-17.715 38.906-9.626 13.402 8.084 17.709 25.498 9.626 38.9l-13.752 22.799zM985.654 233.942l-19.938 20.070c-11.029 11.101-28.973 11.162-40.081 0.126-11.101-11.029-11.156-28.973-0.126-40.075l19.938-20.064c11.017-11.095 28.967-11.174 40.075-0.133 11.101 11.035 11.162 28.979 0.133 40.075zM843.228 553.301l-8.584 19.269c-14.179 31.858-47.833 49.078-80.751 43.922l-5.295 11.891c-30.822 69.231-103.466 107.355-176.035 95.748l-18.616 42.297c-43.669 99.209-141.931 163.315-250.331 163.315-150.809 0-273.498-122.692-273.498-273.498v-661.654c0-15.649 12.688-28.335 28.338-28.335h113.351c15.65 0 28.338 12.686 28.338 28.335v661.654c0 57.053 46.417 103.47 103.471 103.47 41.012 0 78.188-24.25 94.709-61.786l19.993-45.408c-51.964-47.118-68.866-122.899-39.552-188.776l5.298-11.887c-25.376-20.582-35.795-56.881-21.335-89.363l8.579-19.269c18.752-42.129 68.126-61.374 110.605-42.466l318.85 141.937c42.201 18.783 61.247 68.4 42.466 110.603zM696.826 605.331l4.229-9.506-266.276-118.533-4.236 9.508c-24.153 54.28-0.366 118.012 54.766 142.596l68.85 30.669c55.929 24.739 118.718-0.95 142.668-54.733zM303.616 816.391c-88.305 0-160.147-71.842-160.147-160.146v-633.313h-56.675v633.313c0 119.555 97.267 216.822 216.822 216.822 85.939 0 163.84-50.821 198.461-129.472l16.444-37.36-51.773-23.063-16.551 37.591c-25.566 58.093-83.104 95.629-146.58 95.629zM777.71 494.473l-318.848-141.934c-13.685-6.090-29.686 0.048-35.777 13.734l-8.579 19.272c-1.011 2.267-1.565 4.711-1.631 7.193s0.358 4.951 1.249 7.269c0.89 2.317 2.228 4.436 3.937 6.236s3.756 3.245 6.025 4.253l333.837 148.607c9.517 4.236 20.709-0.060 24.949-9.58l8.578-19.27c6.078-13.651-0.084-29.704-13.74-35.779z" />
<glyph unicode="&#xe94d;" glyph-name="chat" d="M952.33 611.252h-243.022v246.538c0 39.88-32.448 72.31-72.31 72.31h-564.688c-39.862 0-72.31-32.428-72.31-72.31v-362.986c0-39.88 32.448-72.33 72.31-72.33h72.23v-95.826c0-45.428 55.292-67.89 87.434-36.204l92.71 91.37v-199.626c0-39.522 32.148-71.67 71.67-71.67h305.082l131.772-129.874c32.034-31.576 86.856-9.138 86.856 35.984v93.892h32.268c39.522 0 71.67 32.148 71.67 71.67v357.412c-0.002 39.5-32.15 71.65-71.672 71.65zM324.682 539.602v-73.608l-120.202-118.464v104.918c0 16.564-13.406 29.97-29.97 29.97h-102.2c-6.814 0-12.368 5.554-12.368 12.388v362.984c0 6.814 5.554 12.368 12.368 12.368h564.688c6.814 0 12.368-5.554 12.368-12.368v-246.54h-253.014c-39.52 0.002-71.67-32.148-71.67-71.648zM964.058 182.19c0-6.474-5.254-11.728-11.728-11.728h-62.24c-16.544 0-29.97-13.408-29.97-29.97v-102.22l-125.378 123.58c-5.594 5.514-13.148 8.612-21.040 8.612h-317.35c-6.474 0-11.728 5.254-11.728 11.728 0 13.256 0 342.786 0 357.412 0 6.454 5.254 11.708 11.728 11.708h555.978c6.474 0 11.728-5.254 11.728-11.708zM564.448 746.226c0 16.552-13.418 29.97-29.97 29.97h-359.648c-16.552 0-29.97-13.418-29.97-29.97s13.418-29.97 29.97-29.97h359.648c16.552-0.002 29.97 13.418 29.97 29.97zM251.088 636.332h-76.258c-16.552 0-29.97-13.418-29.97-29.97s13.418-29.97 29.97-29.97h76.258c16.552 0 29.97 13.418 29.97 29.97s-13.418 29.97-29.97 29.97zM520.492 390.862c-16.552 0-29.97-13.418-29.97-29.97s13.418-29.97 29.97-29.97c16.552 0 29.97 13.418 29.97 29.97s-13.418 29.97-29.97 29.97zM674.342 390.862c-16.552 0-29.97-13.418-29.97-29.97s13.418-29.97 29.97-29.97c16.552 0 29.97 13.418 29.97 29.97s-13.418 29.97-29.97 29.97zM828.192 390.862c-16.552 0-29.97-13.418-29.97-29.97s13.418-29.97 29.97-29.97c16.552 0 29.97 13.418 29.97 29.97s-13.418 29.97-29.97 29.97z" />
<glyph unicode="&#xe94e;" glyph-name="location" horiz-adv-x="964" d="M448.713 14.294c-244.294 371.863-289.639 410.027-289.639 546.691 0 187.201 144.529 338.956 322.815 338.956 178.284 0 322.813-151.755 322.813-338.956 0-136.664-45.345-174.829-289.637-546.691-16.032-24.317-50.322-24.311-66.352 0zM481.888 419.754c74.286 0 134.505 63.231 134.505 141.231s-60.219 141.232-134.505 141.232c-74.286 0-134.506-63.231-134.506-141.232s60.22-141.231 134.506-141.231z" />
<glyph unicode="&#xe94f;" glyph-name="office" d="M0 960v-102.401h51.199v-921.599h358.399v204.8h204.801v-204.8h358.401v921.599h51.2v102.401h-1024zM307.2 243.2h-102.401v102.401h102.401v-102.401zM307.2 448.001h-102.401v102.401h102.401v-102.401zM307.2 652.8h-102.401v102.401h102.401v-102.401zM563.201 243.2h-102.401v102.401h102.401v-102.401zM563.201 448.001h-102.401v102.401h102.401v-102.401zM563.201 652.8h-102.401v102.401h102.401v-102.401zM819.2 243.2h-102.402v102.401h102.402v-102.401zM819.2 448.001h-102.402v102.401h102.402v-102.401zM819.2 652.8h-102.402v102.401h102.402v-102.401z" />
<glyph unicode="&#xe950;" glyph-name="villa" d="M503.758 793.664l406.117-232.365 89.659-0.38-197.573 320.697-90.171-0.127v78.511h-104.49v-78.701l-98.155-0.697-287.176-0.507-197.513-326.654 104.871 0.571 374.431 239.652zM924.387 491.534l-416.952 231.667-397.814-235.089v-441.534h-61.719v-110.577h933.383v110.577h-56.898v444.957zM301.811 193.397h-121.6v205.178h121.536l0.064-205.178zM592.662 40.492h-168.111v350.099h168.111v-350.099zM852.78 193.397h-121.536v205.178h121.536v-205.178z" />
<glyph unicode="&#xe951;" glyph-name="house" d="M512.003 722.857l-335.55-335.551v-367.419h-167.765v-83.888h1006.609v83.888h-167.76v367.419l-335.533 335.551zM386.164 19.888v210.567c0 68.793 56.214 124.986 124.986 124.986 70.459 0 126.672-56.193 126.672-124.986v-210.567h-251.658zM-8.661 439.314l59.317-59.317 461.369 461.39 461.368-461.39 59.319 59.317-520.686 520.686-520.686-520.686z" />
<glyph unicode="&#xe952;" glyph-name="book-mark21" d="M725.333 874.667c70.694 0 128-57.308 128-128v-682.667c0-15.211-8.098-29.269-21.252-36.902s-29.376-7.689-42.581-0.141l-277.5 158.566-277.498-158.566c-13.205-7.548-29.429-7.492-42.584 0.141s-21.251 21.692-21.251 36.902v682.667c0 70.692 57.308 128 128 128z" />
<glyph unicode="&#xe953;" glyph-name="pin" d="M512 960c-208.583 0-378.27-169.688-378.27-378.27 0-68.667 30.796-142.519 32.086-145.634 9.946-23.609 29.572-60.278 43.724-81.773l259.36-392.978c10.614-16.11 26.323-25.344 43.101-25.344s32.487 9.234 43.101 25.322l259.382 393.001c14.174 21.495 33.777 58.165 43.724 81.773 1.291 3.093 32.064 76.945 32.064 145.634 0 208.583-169.688 378.27-378.27 378.27zM817.175 453.363c-8.878-21.161-27.146-55.272-39.852-74.542l-259.382-393.001c-5.118-7.766-6.742-7.766-11.86 0l-259.382 393.001c-12.705 19.27-30.974 53.403-39.852 74.564-0.378 0.912-28.615 68.89-28.615 128.345 0 184.040 149.728 333.768 333.768 333.768s333.768-149.728 333.768-333.768c0-59.544-28.304-127.7-28.593-128.367zM512 781.968c-110.433 0-200.261-89.85-200.261-200.261s89.828-200.261 200.261-200.261c110.433 0 200.261 89.85 200.261 200.261s-89.828 200.261-200.261 200.261zM512 425.949c-85.867 0-155.758 69.869-155.758 155.758s69.891 155.758 155.758 155.758 155.758-69.869 155.758-155.758-69.891-155.758-155.758-155.758z" />
<glyph unicode="&#xe954;" glyph-name="honor" d="M311.992 68.801c-6.4 4.801-14.399 9.599-20.799 12.8 1.599 12.8 0 27.199-3.199 41.599-6.4 24.001-19.2 46.402-36.801 67.201-16.001-12.8-24.001-35.201-20.799-59.202-11.201 11.201-22.401 22.401-32.001 33.602 6.4 11.201 9.6 25.6 9.6 39.999 1.599 24.001-3.2 48.001-14.4 71.999-20.8-7.999-33.6-28.799-36.8-52.799-8 12.8-14.4 27.199-20.8 39.999 9.6 9.601 17.6 22.401 22.4 36.801 8 22.399 9.6 46.399 4.8 71.999-22.4-3.199-41.6-19.2-51.2-43.198-4.8 15.999-8 30.398-9.6 46.399 12.8 6.4 24 17.601 32 30.401 12.8 19.198 22.4 43.198 24 68.798-24 3.201-48-9.599-62.4-32 0 16.001 1.6 33.599 3.2 49.601 14.4 3.201 28.8 11.201 41.6 20.799 17.6 14.399 32 35.201 41.6 59.199-22.4 9.601-49.6 3.201-70.4-15.999 4.8 15.999 9.6 33.599 16 49.601 16-1.602 32 3.199 46.4 9.599 20.8 9.601 40 25.6 56.001 48.001-19.2 15.999-48.001 15.999-73.601 1.599 9.6 15.999 19.2 30.401 30.4 44.8 14.4-6.4 32-6.4 49.601-3.201 23.998 4.801 47.999 14.402 70.4 32.002-14.402 20.799-43.201 28.799-73.601 20.799 22.401 20.8 46.399 40 75.201 56 7.999 4.8 11.201 14.4 6.4 22.4s-16.001 11.2-24.001 6.4c-30.401-17.6-57.6-38.4-81.601-60.8 12.8 32 14.402 60.8 0 83.2-28.799-19.2-49.599-51.2-54.399-78.4-4.8-20.8-1.6-38.4 8-52.8-12.8-16.001-24-33.599-33.6-49.601 3.2 33.599-4.8 62.401-24 78.401-22.4-30.399-32-65.601-28.8-92.8 1.6-20.799 9.6-36.801 22.4-47.999-8-19.202-14.4-36.801-19.2-56.001-6.4 32-20.8 57.6-44.8 68.798-12.8-35.199-12.8-70.4-3.2-96 8-19.198 19.2-31.998 35.2-39.999-3.2-19.2-3.2-38.4-3.2-57.6-14.4 28.801-35.2 48.001-60.8 51.2-3.2-36.798 6.4-70.4 22.4-92.799 11.2-16.001 27.2-25.6 43.2-28.801 1.6-19.2 6.4-36.798 9.6-54.399-20.8 22.399-44.8 35.199-70.4 32 6.4-36.801 24-67.201 46.4-83.2 14.4-12.8 32-17.601 46.4-16.001 6.4-15.999 14.4-33.599 22.4-47.999-27.2 11.201-52.8 17.601-75.2 7.999 16-33.599 41.6-59.199 67.2-70.4 17.6-7.999 33.6-7.999 48-4.801 11.2-14.399 22.4-27.199 35.2-39.999-27.2 6.4-51.2 4.801-68.8-9.599 25.6-28.801 59.2-46.402 88.001-51.2 17.598-3.201 33.599 0 46.399 6.398 6.4-4.798 14.399-9.599 20.799-14.399 12.8-7.999 28.801-3.199 35.201 9.601 6.4 11.201 3.199 25.6-8.002 32zM948.793 318.401c4.801 17.601 7.999 36.801 9.599 54.399 16.001 3.201 30.401 12.8 43.201 28.801 16.001 22.399 25.6 56.001 22.401 92.799-25.6-3.199-46.402-23.998-60.801-51.2 0 19.2-1.599 38.4-3.199 57.6 14.399 6.4 27.199 20.802 35.199 39.999 9.601 25.6 11.201 60.801-3.199 96-24.001-11.198-38.4-36.798-44.8-68.798-4.801 19.2-11.201 38.4-19.2 56.001 12.8 11.198 20.799 27.199 22.399 47.999 3.201 27.199-6.4 62.401-28.799 92.8-20.802-16-27.202-46.401-24.001-78.401-12.8 17.601-24.001 33.599-36.801 49.601 9.601 12.8 12.8 32 7.999 52.8-4.798 27.2-25.6 59.2-57.6 84.8-14.399-20.8-12.8-51.2 0-83.2-23.998 22.4-51.2 43.2-81.598 60.8-8.002 4.8-19.2 1.6-24.001-6.4s-1.599-17.6 6.4-22.4c27.199-16 52.799-35.2 75.201-56-30.401 8-59.202 0-73.601-20.799 22.401-17.601 46.399-27.202 70.4-32 17.601-3.201 35.201-3.201 49.601 3.199 11.201-14.399 22.399-30.401 30.401-44.8-25.6 14.399-54.401 14.399-73.601-1.599 16.001-20.802 35.201-38.4 56.001-48.001 15.999-7.999 32-11.201 46.399-9.599 6.4-16.001 11.201-32 16.001-49.601-20.802 19.2-48.001 25.6-70.4 15.999 9.599-23.998 23.998-44.798 41.599-59.199 12.8-11.198 27.199-17.601 41.601-20.799 1.599-15.999 3.199-33.599 3.199-49.601-14.399 22.401-38.4 35.201-62.401 32 3.201-25.6 11.201-49.598 24.001-68.801 7.999-12.8 19.2-23.998 32-30.398-3.199-16.001-6.4-30.401-9.599-46.399-9.601 23.998-27.202 41.599-51.2 43.198-4.801-25.6-1.602-51.2 4.798-71.999 4.801-14.399 11.201-27.199 22.401-36.801-6.4-14.399-12.8-27.199-20.799-39.999-3.201 24.001-16.001 44.8-36.801 52.799-11.201-23.998-16.001-47.999-14.399-71.999 0-14.399 3.199-28.801 9.599-39.999-9.599-11.201-20.799-22.401-32-33.599 3.201 23.998-3.199 46.399-20.799 59.199-17.601-20.799-30.401-43.201-36.801-67.201-3.199-14.399-4.801-28.799-3.199-41.599-6.4-4.801-12.8-9.601-20.802-12.8-11.198-6.4-14.399-20.802-9.599-32 6.4-12.8 22.399-17.601 35.199-9.601 8.002 4.801 14.402 9.601 20.802 14.402 12.8-6.402 28.799-9.601 46.399-6.402 28.799 4.801 62.401 22.401 88.001 51.2-17.601 14.402-41.601 16.001-68.801 9.601 12.8 12.8 24.001 25.6 35.199 39.999 14.402-3.199 30.401-1.599 48.001 4.801 25.6 11.201 51.2 35.199 67.199 70.4-22.399 9.601-47.999 3.201-71.999-11.201 7.999 16.001 16.001 32 22.401 48.001 15.999 0 32 4.801 46.399 15.999 20.799 17.601 39.999 46.402 46.399 83.2-20.799 0-44.8-14.399-65.599-35.199zM708.801 171.201l-33.599 193.599 140.8 137.599c4.798 4.801 6.398 11.201 4.798 16.001-1.599 6.4-6.4 9.599-12.8 11.201l-195.199 28.799-86.401 176.001c-3.199 4.798-7.999 9.599-14.399 9.599s-11.201-3.199-14.399-9.599l-86.401-176.001-195.199-28.799c-6.4-1.602-11.201-4.801-12.801-11.201s0-12.8 4.801-16.001l140.798-137.599-33.599-193.599c-1.599-6.4 1.602-12.8 6.4-16.001 4.801-3.199 11.201-4.801 17.601-1.599l172.8 92.801 174.399-91.202c1.602-1.599 4.801-1.599 7.999-1.599 3.201 0 6.402 1.599 9.601 3.199 3.199 3.201 6.4 8.002 4.801 14.402z" />
</font>
</defs>
</svg>
